<svg width="797" height="275" viewBox="0 0 797 275" xmlns="http://www.w3.org/2000/svg"><path d="M2.5 32v84.47M210.5 61v130m208-29.5v29.996M26.5 3v155m208-111v170m208-64.764v60.443M10.5 12v128.31M218.5 73v110m208-22.5v34.996M18.5 26.5V131m208-73v145m208-47.764v49.11M34.5 26.5V139m208-73v136m208-59.764v84.526M42.5 50.5V119m208-70v175m208-75.764v76.026M50.5 55.5V118m208-42v125m400-99.5v94.996m-192-31.26v44.86M58.5 32.5V145m208-97v185m400-156.5v148.996M474.5 116.5v148.996M66.5 25v130m208-69v112m400-71.5v53.996m-192-44.996v106.996M74.5 23.5v136.996m208-60.996v88.996m400-48.333v29.026m-192-38.69v112.994M82.5 37v115m208-62.5v112.996m400-64.333v36.854m-192-31.517v83.996M90.5 46v100m208-28v61m400-43.837v46.965m-192-70.628v143.996M98.5 66v65m208 2v35m400-22.837v30.983m-192-29.646v69.996M106.5 56v88m208-33v83m400-40.837v20.546m-192-7.506v25.906M114.5 70v65m656 2.5v78.996M322.5 142v25m400-14.837v25.765m-192-16.722v32.486M122.5 84v40m656 33.5v43.996M330.5 140v32m400-53.5v96.996m-192-50.406v20.004M130.5 98v16.45m656 10.05v113.996M338.5 149v18m400-54.5v113.996m-192-77.29v46.88M138.5 96v23.132m656 27.368v72.996m-448-95.996v72.996m400-61.996v72.996m-192-72.996v72.996M146.5 88v43.694m208-54.194v169.996M754.5 88.5v169.996M562.5 84.5v169.996M154.5 98v28.272m208-41.772v159.996M762.5 95.5v159.996M570.5 87.5v159.996M162.5 90v47.292m208-42.792v142.996M578.5 70.5v189.996m-408-172.948v56.547m208-24.595v97.996M586.5 96.5v132.996M178.5 91.5v53.68m208-11.68v73.996m208-91.996v91.996m32-142.996v176.996M186.5 69v102m208-80.5v163.996M602.5 45.5v226.996m32-202.996v163.996M194.5 79v87m208-63.5v143.996M610.5 66.5v180.996m32-185.996v174.996M202.5 64v120m208-47.5v78.996m208-108.996v97.996m32-96.996v78.996" stroke="#64BCDF" stroke-width="5" fill="none" stroke-linecap="square"/></svg>