<svg width="800" height="426" viewBox="0 0 800 426" xmlns="http://www.w3.org/2000/svg"><title>Notes</title><path d="M800 351.808l-27.602 11.014 1.687 6.02 10.58 38.71c-2.647-1.36-6.1-1.743-9.588-.809-6.419 1.72-10.516 7.244-9.15 12.339 1.364 5.094 7.648 7.733 14.067 6.013 6.362-1.705 10.52-6.841 9.156-12.299h.005l.02.072-.005-.015-.005-.018-12.27-45.096L800 358.373v-6.565zM394.265 107.102l.007-.013.009-.017 25.13-45.75-.002-.001.41-.747-39.38-16.109-2.968 5.503-19.28 35.196c-.959-2.818-3.177-5.493-6.335-7.243-5.812-3.222-12.597-2.094-15.153 2.52-2.557 4.612.13 10.876 5.942 14.097 5.76 3.193 12.32 2.387 15.13-2.487l.004.003-.037.066.007-.013.01-.018 22.5-40.962 33.842 13.628-19.387 35.391c-.96-2.817-3.178-5.492-6.336-7.242-5.812-3.222-12.596-2.094-15.153 2.519-2.557 4.613.13 10.876 5.942 14.098 5.76 3.193 12.32 2.387 15.13-2.487l.004.003-.036.065m83.623 86.211c-.23-6.569-4.76-11.751-9.875-11.69l-.004-.11h.014-.019c-.008 0-.014.054-.022.054l-46.695 1.837-5.748-36.014 40.321-1.603c-1.92 2.273-3.07 5.555-2.944 9.164.232 6.64 4.693 11.876 9.964 11.692 5.271-.184 9.272-5.713 9.04-12.354-.23-6.568-4.76-11.75-9.874-11.688l-.004-.11h.013-.018c-.008 0-.014.054-.023.054l-52.087 2.071v.003l-.916.035 6.474 42.052 6.197-.288 40.146-1.603c-1.92 2.274-3.07 5.553-2.944 9.161.232 6.642 4.65 11.877 9.922 11.693 5.27-.184 9.314-5.715 9.082-12.356m-210.306-110c-.23-6.569-4.76-11.751-9.875-11.69l-.004-.11h.014-.019c-.008 0-.014.054-.022.054l-46.695 1.837-5.748-36.014 40.321-1.603c-1.92 2.273-3.07 5.555-2.944 9.164.232 6.64 4.693 11.876 9.964 11.692 5.271-.184 9.272-5.713 9.04-12.354-.23-6.568-4.76-11.75-9.874-11.688l-.004-.11h.013-.018c-.008 0-.014.054-.023.054l-52.087 2.071v.003l-.916.035 6.474 42.052 6.197-.288 40.146-1.603c-1.92 2.274-3.07 5.553-2.944 9.161.232 6.642 4.65 11.877 9.922 11.693 5.271-.184 9.314-5.715 9.082-12.356m275.121 181.48l.756-2.672 36.038 5.679-.69 2.448-36.104-5.455zm26.981 48.733l.005-.018.007-.022 14.21-50.24-.002-.001.242-.856-42-6.825-1.64 5.97-10.905 38.704c-1.568-2.53-4.331-4.634-7.802-5.63-6.387-1.834-12.745.79-14.2 5.86-1.456 5.069 2.576 10.545 8.963 12.379 6.312 1.812 12.504-.429 14.178-5.8l.014.004-.025.086c.003-.008 0-.017.003-.026.003-.01.003-.021.006-.032l11.123-39.307 36.107 5.455-9.414 33.414c-1.568-2.53-4.33-4.637-7.8-5.634-6.388-1.833-12.745.79-14.2 5.859-1.457 5.069 2.506 10.784 8.894 12.617 6.312 1.813 12.577-.681 14.109-5.562l.013.004.114-.399zM144.343 100.242l-1.004-2.588L175.538 80.5l.922 2.37-32.117 17.372zm50.877 22.682l-.007-.017-.008-.021-18.887-48.676h-.002l-.322-.829-37.65 19.826 2.283 5.755 14.584 37.472c-2.775-1.076-6.248-1.094-9.619.2-6.205 2.378-9.703 8.3-7.814 13.225 1.888 4.925 8.403 6.872 14.608 4.493 6.131-2.352 9.728-7.868 7.832-13.165l.014-.005.032.084c-.003-.009-.01-.015-.013-.023-.004-.01-.01-.019-.015-.029l-14.773-38.086 32.12-17.373 12.59 32.351c-2.774-1.077-6.249-1.097-9.62.195-6.204 2.38-9.703 8.3-7.815 13.225 1.888 4.924 8.493 7.103 14.697 4.724 6.132-2.351 9.634-8.114 7.921-12.933l.013-.005-.15-.388zm397.038 60.338l-.009-.012-.011-.015-30.932-42.055-2.434 1.768 27.186 37.029c-2.959-.321-6.32.558-9.241 2.68-5.376 3.907-7.221 10.532-4.12 14.799 3.1 4.267 9.91 4.476 15.286.57 5.33-3.871 7.37-10.16 4.138-14.766l.089-.064.048.066m-295.583-36.398l.013-.007.016-.009 45.951-24.778-1.412-2.656-40.452 21.768c.73-2.885.326-6.336-1.37-9.524-3.119-5.867-9.423-8.617-14.08-6.14-4.656 2.475-5.812 9.191-2.692 15.058 3.092 5.816 9.036 8.712 14.046 6.153l.052.097-.072.038m181.088 133.117l.013-.006.017-.008 47.185-22.34-1.272-2.726-41.536 19.621c.88-2.843.658-6.31-.868-9.583-2.808-6.022-8.96-9.097-13.74-6.868-4.78 2.229-6.285 8.874-3.477 14.897 2.784 5.97 8.568 9.172 13.705 6.88l.047.099-.074.034M106.503 24.63l.014-.002.02-.001 51.979-4.855-.262-2.996-45.742 4.232c1.799-2.371 2.776-5.706 2.461-9.303-.579-6.62-5.308-11.613-10.562-11.153-5.254.46-8.941 6.19-8.362 12.809.574 6.562 4.914 11.55 10.526 11.152l.01.11-.082.007m630.338 353.887c-4.163-2.502-6.054-7.03-4.213-10.093 1.84-3.064 6.726-3.52 10.89-1.018 4.163 2.501 6.053 7.029 4.212 10.092-1.84 3.064-6.725 3.52-10.889 1.019zm13.643.654l.008-.013.01-.017 26.715-44.85-2.578-1.55-23.462 39.493c-.861-2.849-2.985-5.599-6.08-7.458-5.695-3.423-12.515-2.533-15.231 1.988-2.717 4.521-.249 10.873 5.448 14.295 5.645 3.392 12.232 2.813 15.209-1.96l.003.002-.042.07zM93.642 134.548c-2.502 4.164-7.03 6.054-10.093 4.213-3.063-1.84-3.52-6.726-1.018-10.89 2.501-4.163 7.029-6.053 10.092-4.212 3.064 1.841 3.52 6.725 1.02 10.889zm.654-13.643l-.013-.008-.016-.01-44.852-26.715-1.549 2.578 39.493 23.463c-2.849.86-5.599 2.984-7.458 6.078-3.423 5.697-2.533 12.516 1.989 15.233 4.52 2.716 10.872.248 14.294-5.449 3.392-5.645 2.813-12.232-1.96-15.209l.002-.003.07.042zM350.7 193.044c2.716-4.027 7.337-5.678 10.3-3.68 2.963 2 3.163 6.902.447 10.929-2.716 4.027-7.336 5.676-10.3 3.678-2.962-1.999-3.163-6.9-.447-10.927zm-1.367 13.59l.013.008.016.01 43.391 29.027 1.682-2.494-38.21-25.497c2.89-.71 5.747-2.687 7.766-5.68 3.716-5.509 3.184-12.366-1.19-15.315-4.372-2.95-10.843-.817-14.56 4.692-3.682 5.46-3.448 12.068 1.163 15.291l-.003.004-.068-.046zm303.546 107.464c-5.707-9.679-2.833-18.194-2.806-18.246l.046-.09-2.54-1.294-20.65 41.034c-1.057-2.782-3.368-5.378-6.584-7.017-5.921-3.017-12.662-1.653-15.056 3.047-2.394 4.699.51 10.862 6.431 13.88 5.87 2.99 12.4 1.952 15.036-3.017l.163.082-.037.073.006-.013.009-.017 19.23-38.3c.317 2.766 1.463 6.432 4.272 11.82 5.562 10.665-4.04 13.914-4.04 13.914 6.838.271 12.026-6.514 6.52-15.856M394.854 148.14c-.103-11.235 6.644-17.172 6.692-17.204l.086-.056-1.552-2.39-38.401 25.212c.475-2.938-.228-6.342-2.194-9.37-3.62-5.573-10.139-7.762-14.562-4.889-4.423 2.872-4.99 9.663-1.37 15.236 3.587 5.524 9.762 7.89 14.53 4.905l.1.153-.07.045.013-.008.016-.01 35.803-23.554c-1.108 2.554-1.948 6.301-2.21 12.371-.515 12.018-10.456 10.03-10.456 10.03 5.787 3.655 13.672.373 13.575-10.47M41.269 164.58c10.523-3.94 18.41.37 18.456.404l.081.062 1.715-2.276-36.825-27.462c2.924-.559 5.881-2.383 8.054-5.267 4-5.307 3.827-12.181-.386-15.356-4.212-3.174-10.786-1.383-14.785 3.924-3.964 5.26-4.077 11.872.36 15.331l-.11.146-.066-.05.012.01.015.011 34.379 25.589c-2.779-.169-6.588.324-12.381 2.154-11.47 3.626-13.002-6.395-13.002-6.395-1.454 6.688 4.326 12.975 14.483 9.174m416.785-91.347c-10.969 2.436-18.18-2.929-18.22-2.97l-.072-.072-2.015 2.015 32.644 32.32c-2.973.146-6.155 1.541-8.708 4.094-4.7 4.7-5.485 11.531-1.755 15.26 3.729 3.73 10.488 2.872 15.187-1.827 4.658-4.657 5.69-11.189 1.778-15.232l.129-.13.058.059-.01-.01-.014-.014L446.573 76.6c2.728.553 6.568.596 12.56-.41 11.863-1.995 11.986 8.142 11.986 8.142 2.37-6.42-2.479-13.451-13.065-11.101M125.423 63.91c-10.305-4.477-12.985-13.055-12.994-13.113l-.016-.1-2.815.446 7.413 45.335c-2.491-1.63-5.886-2.371-9.452-1.807-6.563 1.04-11.215 6.105-10.39 11.315.826 5.209 6.798 8.488 13.362 7.448 6.506-1.03 11.18-5.708 10.391-11.278l.18-.029.013.081-.002-.014-.003-.02-6.955-42.287c1.882 2.051 4.964 4.343 10.403 7.05 10.77 5.36 4.91 13.633 4.91 13.633 5.693-3.801 5.901-12.34-4.045-16.66m431.456 136.188c-5.707-9.679-2.833-18.194-2.806-18.246l.046-.09-2.54-1.294-20.65 41.034c-1.057-2.782-3.368-5.378-6.584-7.017-5.921-3.017-12.662-1.653-15.056 3.047-2.394 4.699.51 10.862 6.431 13.88 5.87 2.99 12.4 1.952 15.036-3.017l.163.082-.037.073.006-.013.009-.017 19.23-38.3c.317 2.766 1.463 6.432 4.272 11.82 5.562 10.665-4.04 13.914-4.04 13.914 6.838.271 12.026-6.514 6.52-15.856M700.82 389.622a18.602 18.602 0 0 0-.703-3.54c-2.74-9.234.48-16.068 1.477-17.863l2.49-2.886c-.345 2.753-.076 6.598 1.331 12.442 1.846 7.664-1.838 10.68-4.595 11.847zm12.862-21.357c1.846 7.665-1.838 10.68-4.595 11.848a18.634 18.634 0 0 0-.704-3.54c-2.865-9.664.793-16.699 1.6-18.08l2.38-2.759c-.363 2.76-.104 6.624 1.32 12.531zm-4.533 12.948c5.534-.03 10.195-5.159 7.539-14.118-3.195-10.772 1.75-18.255 1.788-18.298l.067-.077-2.344-2.038-29.964 34.819c-.353-2.956-1.967-6.033-4.692-8.401-5.015-4.36-11.885-4.667-15.345-.686-3.46 3.98-2.133 10.663 2.882 15.023 4.971 4.32 11.56 4.894 15.32.71l-.075-.064-.053.062.01-.012.012-.014 11.472-13.223c-.328 2.748-.029 6.59 1.363 12.372 2.816 11.694-7.23 12.573-7.23 12.573 5.506 1.607 11.118-1.844 10.979-9.123 4.493-.024 8.388-3.428 8.27-9.505zM533.39 157.856a18.602 18.602 0 0 0-2.379-2.714c-6.989-6.628-7.617-14.156-7.652-16.208l.713-3.745c1.078 2.557 3.234 5.752 7.375 10.11 5.43 5.714 3.748 10.167 1.944 12.557zm.461-24.927c5.43 5.715 3.748 10.168 1.944 12.558a18.634 18.634 0 0 0-2.38-2.714c-7.313-6.936-7.662-14.858-7.654-16.458l.682-3.578c1.066 2.572 3.222 5.788 7.408 10.192zm2.548 13.48c4.777-2.793 6.25-9.565-.53-15.996-8.153-7.731-7.612-16.684-7.6-16.741l.019-.1-3.049-.593-8.54 45.136c-1.784-2.383-4.72-4.24-8.264-4.93-6.523-1.267-12.626 1.902-13.632 7.08-1.007 5.176 3.484 10.3 10.008 11.568 6.465 1.257 12.457-1.54 13.622-7.044l-.097-.019-.016.08.003-.014.004-.018 3.324-17.188c1.09 2.544 3.27 5.722 7.366 10.033 8.286 8.719.025 14.504.025 14.504 5.572-1.362 8.707-7.157 4.947-13.39 3.879-2.268 5.55-7.163 2.41-12.368zm-280.009-3.553a18.602 18.602 0 0 0-2.379-2.714c-6.989-6.628-7.617-14.156-7.652-16.208l.713-3.745c1.078 2.557 3.234 5.752 7.375 10.11 5.43 5.714 3.748 10.167 1.944 12.557zm.461-24.927c5.43 5.715 3.748 10.168 1.944 12.558a18.634 18.634 0 0 0-2.38-2.714c-7.313-6.936-7.662-14.858-7.654-16.458l.682-3.578c1.066 2.572 3.222 5.788 7.408 10.192zm2.548 13.48c4.777-2.793 6.25-9.565-.53-15.996-8.153-7.731-7.612-16.684-7.6-16.741l.019-.1-3.049-.593-8.54 45.136c-1.784-2.383-4.72-4.24-8.264-4.93-6.523-1.267-12.626 1.902-13.632 7.08-1.007 5.176 3.484 10.3 10.008 11.568 6.465 1.257 12.457-1.54 13.622-7.044l-.097-.019-.016.08.003-.014.004-.018 3.324-17.188c1.09 2.544 3.27 5.722 7.366 10.033 8.286 8.719.025 14.504.025 14.504 5.572-1.362 8.707-7.157 4.947-13.39 3.879-2.268 5.55-7.163 2.41-12.368zM7.379 106.856a18.602 18.602 0 0 0-2.38-2.714c-6.988-6.628-7.617-14.156-7.652-16.208l.714-3.745c1.078 2.557 3.233 5.752 7.374 10.11 5.43 5.714 3.748 10.167 1.944 12.557zm.46-24.927c5.431 5.715 3.748 10.168 1.944 12.558a18.634 18.634 0 0 0-2.38-2.714C.09 84.837-.257 76.915-.25 75.315l.682-3.578C1.497 74.31 3.653 77.525 7.84 81.93zm2.548 13.48c4.778-2.793 6.25-9.565-.53-15.996-8.153-7.731-7.611-16.684-7.6-16.741l.02-.1-3.05-.593-8.54 45.136c-1.783-2.383-4.72-4.24-8.263-4.93-6.523-1.267-12.627 1.902-13.633 7.08-1.006 5.176 3.485 10.3 10.008 11.568 6.465 1.257 12.457-1.54 13.622-7.044l-.097-.019-.015.08.003-.014.003-.018L-4.36 96.63c1.09 2.544 3.27 5.722 7.366 10.033 8.287 8.719.025 14.504.025 14.504 5.573-1.362 8.707-7.157 4.947-13.39 3.879-2.268 5.55-7.163 2.41-12.368zM168.933 58.45a18.602 18.602 0 0 0-.392-3.589c-1.924-9.437 1.88-15.964 3.028-17.665l2.732-2.66c-.583 2.714-.65 6.567.242 12.512 1.171 7.796-2.761 10.478-5.61 11.402zm14.674-20.155c1.171 7.796-2.761 10.478-5.61 11.402a18.634 18.634 0 0 0-.392-3.589c-2.013-9.876 2.245-16.565 3.17-17.871l2.61-2.54c-.602 2.718-.68 6.589.222 12.598zm-5.644 12.503c5.516.452 10.606-4.25 8.74-13.407-2.244-11.01 3.335-18.032 3.377-18.073l.073-.07-2.157-2.235-32.885 32.075c-.094-2.975-1.433-6.181-3.941-8.778-4.617-4.78-11.434-5.685-15.228-2.021-3.794 3.664-3.054 10.437 1.562 15.217 4.576 4.738 11.089 5.884 15.2 2.044l-.07-.072-.058.057.01-.01.014-.013 12.582-12.173c-.567 2.71-.604 6.563.28 12.444 1.786 11.895-8.3 11.895-8.3 11.895 5.346 2.08 11.238-.869 11.733-8.131 4.478.367 8.655-2.684 9.068-8.75zm519.467 246.53c-9.76-2.52-13.905-9.281-14.674-10.683l-1.138-3.459c2.18 1.732 5.624 3.5 11.421 5.322 7.52 2.365 8.207 7.075 7.788 10.04-1-.478-2.128-.892-3.396-1.22zm-3.834-12.003c-10.878-2.81-14.733-10.906-14.75-10.962l-.032-.096-2.98.968 14.414 43.617c-2.715-1.22-6.184-1.421-9.618-.306-6.32 2.054-10.122 7.785-8.492 12.8 1.63 5.017 8.042 7.321 14.363 5.267 6.263-2.035 10.148-7.386 8.498-12.765l-.068.023.025.077-.004-.014-.006-.018-9.401-28.68c2.183 1.715 5.635 3.458 11.37 5.262 11.474 3.609 7.05 12.675 7.05 12.675 4.213-3.893 4.174-10.49-2.138-14.119 2.824-4.76.817-11.392-8.231-13.73zm-266.09-78.15c-9.312 3.86-16.692.956-18.15.299l-2.99-2.077c2.783.071 6.598-.59 12.324-2.623 7.43-2.637 10.813.711 12.263 3.332a18.595 18.595 0 0 0-3.447 1.069zm-10.286-7.279c-10.379 4.303-18.33.157-18.378.123l-.083-.058-1.797 2.566 37.76 26.16c-2.902.66-5.793 2.587-7.864 5.544-3.812 5.444-3.4 12.309.921 15.334 4.32 3.025 10.828 1.006 14.64-4.438 3.778-5.395 3.66-12.006-.895-15.31l-.041.06.067.047-.012-.009-.016-.01-24.767-17.247c2.775.055 6.581-.63 12.247-2.641 11.335-4.024 13.258 5.88 13.258 5.88 1.022-5.645-2.98-10.89-10.204-9.99-.61-5.5-6.204-9.59-14.836-6.01zM296.506 55.175c-9.312 3.86-16.692.956-18.15.299l-2.99-2.077c2.783.071 6.598-.59 12.324-2.623 7.43-2.637 10.813.711 12.263 3.332a18.595 18.595 0 0 0-3.447 1.069zm-10.286-7.279c-10.379 4.303-18.33.157-18.378.123l-.083-.058-1.797 2.566 37.76 26.16c-2.902.66-5.793 2.587-7.864 5.544-3.812 5.444-3.4 12.309.921 15.334 4.32 3.025 10.828 1.006 14.64-4.438 3.778-5.395 3.66-12.006-.895-15.31l-.041.06.067.047-.012-.009-.016-.01-24.767-17.247c2.775.055 6.581-.63 12.247-2.641 11.335-4.024 13.258 5.88 13.258 5.88 1.022-5.645-2.98-10.89-10.204-9.99-.61-5.5-6.204-9.59-14.836-6.01zm371.434 189.58l2.658.802-6.295 35.935-2.435-.73 6.072-36.007zm-47.642-26.97c-1.922 6.284.67 12.656 5.526 14.265l-.032.106-.008-.002.018.005c.008.003.031-.046.039-.044l39.128 11.772-6.07 35.996-33.246-9.989c2.556-1.525 4.712-4.254 5.767-7.707 1.943-6.355-.57-12.757-5.614-14.3-5.043-1.541-10.628 2.383-12.57 8.738-1.922 6.284.67 12.656 5.526 14.265l-.033.105-.007-.002.018.006c.008.002.031-.046.039-.045l49.918 14.998v-.002l.885.267 7.568-41.869-5.948-1.744-38.485-11.556c2.556-1.525 4.71-4.25 5.766-7.703 1.943-6.355-.53-12.744-5.574-14.286-5.044-1.542-10.669 2.371-12.611 8.726zM66.852 69.65l.3 2.76-35.538 8.247-.278-2.527 35.516-8.48zm6.21-54.392c-6.535.687-11.387 5.563-10.971 10.66l-.11.012-.001-.007.002.018c0 .009.054.011.056.019l4.452 40.616-35.506 8.479-3.796-34.507c2.404 1.757 5.757 2.675 9.348 2.298 6.609-.695 11.52-5.51 10.97-10.756-.552-5.245-6.347-8.852-12.956-8.157-6.535.687-11.386 5.563-10.97 10.66l-.11.012-.001-.007.002.018c0 .009.054.011.056.019l5.698 51.81h.002l.1.918 41.498-9.393-.719-6.157-4.4-39.941c2.403 1.757 5.753 2.676 9.344 2.298 6.61-.694 11.524-5.468 10.972-10.713-.551-5.246-6.35-8.894-12.96-8.2z" fill="#333" fill-rule="evenodd"/></svg>