<svg width="326" height="118" viewBox="0 0 326 118" xmlns="http://www.w3.org/2000/svg" xmlns:xlink="http://www.w3.org/1999/xlink"><defs><path id="a" d="M237.08.04H.15v57.566h236.93V.04z"/></defs><g fill="none" fill-rule="evenodd"><path fill="#FFF" d="M71.693 38.122v-27.9h-12.08v30.66h12.08v-2.76m-50.173 0v-27.9H9.44v30.66h12.08v-2.76m38.094 69.658h12.08V78.046h-12.08M9.44 107.78h12.08V78.046H9.44"/><path d="M62.137 61.323l-11.814 8.362V73.4c0 2.557 2.034 4.647 4.59 4.647h21.37c2.554 0 4.7-2.09 4.7-4.646V61.33H62.138m-7.225 0h-4.59v8.36l11.814-8.36h-7.224m21.37-3.718h4.7v-9.524l-13.573 9.52h8.872" fill="#FFF"/><path d="M76.282 40.882h-21.37c-2.555 0-4.59 2.09-4.59 4.645v12.08h17.09l13.572-9.524v-2.556c0-2.554-2.147-4.645-4.702-4.645m-64.32 20.44L.15 69.686V73.4c0 2.557 2.034 4.647 4.59 4.647h21.37c2.555 0 4.7-2.09 4.7-4.646V61.33H11.964" fill="#FFF"/><path fill="#FFF" d="M4.74 61.323H.15v8.362l11.813-8.362H4.74m21.37-3.717h4.7v-9.523l-13.57 9.523h8.87"/><mask id="b" fill="#fff"><use xlink:href="#a"/></mask><path d="M26.11 40.882H4.74c-2.556 0-4.59 2.09-4.59 4.645v12.08h17.088l13.573-9.524v-2.556c0-2.554-2.14-4.645-4.7-4.645m92.97-33.45V0h18.59v23.91c0 4.32-1.1 7.555-3.32 9.698-2.23 2.145-5.08 3.217-8.57 3.217-4.36 0-8.15-1.678-11.4-5.03l4.21-5.81c2.18 2.35 4.46 3.526 6.85 3.526 1.14 0 1.99-.44 2.81-1.32.81-.88 1.09-2.2 1.09-3.96V7.44H119.1M172.04 0v7.433h-17.654v7.433h15.795V22.3h-15.79v7.432h18.59v6.504h-26.95V0h26.02m33.45 0v7.433h-16.73v7.433h15.8V22.3h-15.8v13.936h-8.37V0h25.09m31.59 0v7.433h-16.72v7.433h15.8V22.3h-15.8v13.936H212V0h25.084" fill="#FFF" mask="url(#b)"/><path fill="#FFF" d="M139.52 43.67h8.362v36.235h-8.362V65.04h-13.937v14.865h-8.362V43.67h8.37v14.866h13.94V43.67m17.66 36.235h8.37V43.67h-8.36m16.72 36.235V43.67h8.36v28.803h14.87v7.432H173.9m62.252-23.15L226.135 76.19h-4.824L212 56.755v23.15h-8.363V43.67h10.784l9.34 19.918 9.39-19.92h10.45v36.237h-7.43v-23.15m31.69-2.245l-4.56 10.53h9.08l-4.51-10.53zm10.94 25.395l-3.37-8.362h-15.2l-3.37 8.362h-8.61l15.66-36.235h7.83L287.4 79.9h-8.61zM317 43.67h8.36v36.235h-8.385l-17.63-23.047v23.047h-7.43V43.67h7.27L317 66.663V43.67"/><path d="M117.22 93.378h208.126" stroke="#FFF"/><path d="M125.9 113.19l-2.212-5.02-2.215 5.02h4.426zm-5.263 1.9l-1.22 2.77h-2.196l5.37-12.183h2.2l5.37 12.183h-2.19l-1.22-2.77h-6.1zm16.435-.017c.557.65 1.313.974 2.265.974.954 0 1.708-.324 2.267-.974.557-.652.835-1.535.835-2.65v-6.746h2.05v6.833c0 1.755-.48 3.105-1.45 4.053-.97.945-2.21 1.42-3.72 1.42-1.51 0-2.75-.475-3.71-1.42-.97-.948-1.45-2.298-1.45-4.053v-6.833h2.05v6.745c0 1.116.28 2 .84 2.65m22.34-3.312c0-2.79-1.6-4.182-4.8-4.182h-2.06v8.348h2.28c1.47 0 2.6-.352 3.38-1.055.78-.7 1.17-1.74 1.17-3.11zm.31-4.487c1.17 1.062 1.76 2.54 1.76 4.434 0 1.895-.57 3.393-1.71 4.497-1.14 1.105-2.88 1.656-5.23 1.656h-4.04v-12.183h4.18c2.18 0 3.86.532 5.03 1.596zm7.19 10.587h2.06v-12.183h-2.06m16.92 2.877c-.83-.86-1.85-1.29-3.06-1.29s-2.23.43-3.06 1.29c-.83.86-1.25 1.902-1.25 3.128 0 1.226.41 2.267 1.24 3.13.83.858 1.85 1.288 3.06 1.288s2.23-.43 3.06-1.29c.83-.86 1.25-1.902 1.25-3.128 0-1.226-.42-2.268-1.25-3.128zm1.51 7.624c-1.23 1.203-2.75 1.804-4.57 1.804-1.82 0-3.34-.6-4.57-1.804-1.24-1.2-1.85-2.7-1.85-4.496 0-1.795.61-3.294 1.85-4.496 1.23-1.204 2.75-1.805 4.57-1.805 1.81 0 3.33.61 4.56 1.81 1.23 1.2 1.85 2.7 1.85 4.5s-.62 3.3-1.85 4.5zm18.48-8.898c-.6 0-1.09.122-1.48.368-.39.244-.58.613-.58 1.106 0 .494.19.87.57 1.133.38.26 1.19.543 2.45.844 1.24.31 2.19.73 2.82 1.28.63.55.95 1.35.95 2.42s-.4 1.93-1.21 2.59c-.8.67-1.85 1-3.15 1-1.91 0-3.6-.65-5.078-1.97l1.3-1.55c1.23 1.07 2.51 1.61 3.83 1.61.66 0 1.184-.14 1.574-.42.39-.28.584-.66.584-1.13s-.186-.83-.55-1.1c-.37-.26-1-.5-1.89-.71-.9-.21-1.58-.41-2.04-.59-.47-.18-.88-.41-1.24-.7-.72-.55-1.08-1.38-1.08-2.51s.41-2 1.23-2.61c.82-.6 1.83-.91 3.04-.91.78 0 1.55.13 2.32.39.77.26 1.43.62 1.99 1.08l-1.1 1.55c-.36-.32-.85-.59-1.466-.8-.62-.21-1.223-.31-1.82-.31m16.85 4.49c.41-.44.62-1.08.62-1.92 0-.84-.26-1.44-.78-1.79-.525-.35-1.345-.52-2.46-.52h-2.09v4.88h2.387c1.13 0 1.91-.21 2.32-.65zm1.456-5.03c.85.71 1.278 1.8 1.278 3.28s-.436 2.558-1.3 3.24-2.195 1.03-3.98 1.03h-2.165v3.57h-2.06v-12.2h4.18c1.85 0 3.2.357 4.047 1.06zm15.04-1.06v1.93h-6.5v3.22h5.84v1.83h-5.84v3.26h6.71v1.94h-8.76v-12.2h8.557m11.2 10.31c.71 0 1.32-.12 1.83-.357.51-.24 1.05-.617 1.603-1.14l1.32 1.36c-1.29 1.43-2.85 2.143-4.7 2.143-1.84 0-3.37-.593-4.58-1.78-1.22-1.184-1.822-2.682-1.822-4.494 0-1.81.61-3.32 1.85-4.53 1.24-1.21 2.8-1.812 4.69-1.812 1.887 0 3.466.7 4.73 2.097l-1.305 1.43c-.58-.56-1.13-.94-1.65-1.17-.52-.21-1.13-.33-1.826-.33-1.23 0-2.26.4-3.1 1.2-.835.8-1.254 1.82-1.254 3.05 0 1.24.41 2.28 1.24 3.1.83.84 1.82 1.25 2.95 1.25m10.06 1.87h2.06v-12.2h-2.05m15.21 7.52l-2.21-5.02-2.218 5.02h4.43zm-5.26 1.9l-1.22 2.77h-2.2l5.37-12.184h2.197l5.37 12.18h-2.19l-1.22-2.77h-6.1zm13.996 2.77v-12.2h2.06v10.23h5.56v1.954h-7.61m12.65 0h2.055V105.7H295m11.91 1.602c-.6 0-1.09.123-1.472.37-.382.25-.574.62-.574 1.11 0 .5.19.87.574 1.14.384.26 1.2.55 2.45.85 1.247.305 2.19.73 2.822 1.274.63.54.95 1.35.95 2.41s-.406 1.92-1.208 2.58c-.8.66-1.854.99-3.154.99-1.905 0-3.594-.66-5.07-1.97l1.29-1.55c1.23 1.07 2.51 1.6 3.83 1.6.665 0 1.19-.15 1.58-.43.39-.29.584-.66.584-1.13s-.183-.84-.548-1.1c-.368-.26-.997-.5-1.89-.72-.897-.21-1.577-.41-2.04-.59-.466-.18-.878-.42-1.24-.705-.724-.55-1.08-1.383-1.08-2.51 0-1.13.406-1.996 1.225-2.61.82-.61 1.83-.914 3.04-.914.78 0 1.55.13 2.32.39.76.256 1.43.616 1.98 1.08l-1.1 1.55c-.36-.325-.85-.59-1.46-.8-.62-.21-1.22-.315-1.82-.315m14.68.28v10.3h-2.06v-10.3h-3.7v-1.88h9.45v1.88h-3.69" fill="#FFF"/></g></svg>