<?xml version="1.0" encoding="UTF-8" standalone="no"?>
<svg width="326px" height="118px" viewBox="0 0 326 118" version="1.1" xmlns="http://www.w3.org/2000/svg" xmlns:xlink="http://www.w3.org/1999/xlink">
    <!-- Generator: Sketch 40.1 (33804) - http://www.bohemiancoding.com/sketch -->
    <title>JHILMAN_LOGO_RGB</title>
    <desc>Created with Sketch.</desc>
    <defs>
        <polygon id="path-1" points="237.079 0.04 0.15 0.04 0.15 57.606 237.079 57.606 237.079 0.04"></polygon>
    </defs>
    <g id="Page-1" stroke="none" stroke-width="1" fill="none" fill-rule="evenodd">
        <g id="Home-Page" transform="translate(-701.000000, -276.000000)">
            <g id="Hero-Section" transform="translate(-34.000000, 0.000000)">
                <g id="JHILMAN_LOGO_RGB" transform="translate(735.000000, 276.000000)">
                    <polyline id="Fill-4" fill="#FFFFFF" points="71.693 38.122 71.693 10.221 59.614 10.221 59.614 40.882 71.693 40.882 71.693 38.122"></polyline>
                    <polyline id="Fill-5" fill="#FFFFFF" points="21.52 38.122 21.52 10.221 9.441 10.221 9.441 40.882 21.52 40.882 21.52 38.122"></polyline>
                    <polygon id="Fill-6" fill="#FFFFFF" points="59.614 107.779 71.693 107.779 71.693 78.047 59.614 78.047"></polygon>
                    <polygon id="Fill-7" fill="#FFFFFF" points="9.441 107.779 21.52 107.779 21.52 78.047 9.441 78.047"></polygon>
                    <path d="M62.137,61.323 L50.323,69.685 L50.323,73.401 C50.323,75.957 52.357,78.047 54.913,78.047 L76.282,78.047 C78.837,78.047 80.984,75.957 80.984,73.401 L80.984,61.323 L62.137,61.323" id="Fill-8" fill="#FFFFFF"></path>
                    <polyline id="Fill-9" fill="#FFFFFF" points="54.913 61.323 50.323 61.323 50.323 69.685 62.137 61.323 54.913 61.323"></polyline>
                    <polyline id="Fill-10" fill="#FFFFFF" points="76.282 57.606 80.984 57.606 80.984 48.083 67.411 57.606 76.282 57.606"></polyline>
                    <path d="M76.282,40.882 L54.913,40.882 C52.357,40.882 50.323,42.973 50.323,45.527 L50.323,57.606 L67.411,57.606 L80.984,48.083 L80.984,45.527 C80.984,42.973 78.837,40.882 76.282,40.882" id="Fill-11" fill="#FFFFFF"></path>
                    <path d="M11.963,61.323 L0.15,69.685 L0.15,73.401 C0.15,75.957 2.184,78.047 4.739,78.047 L26.109,78.047 C28.665,78.047 30.811,75.957 30.811,73.401 L30.811,61.323 L11.963,61.323" id="Fill-12" fill="#FFFFFF"></path>
                    <polyline id="Fill-13" fill="#FFFFFF" points="4.739 61.323 0.15 61.323 0.15 69.685 11.963 61.323 4.739 61.323"></polyline>
                    <polyline id="Fill-14" fill="#FFFFFF" points="26.109 57.606 30.811 57.606 30.811 48.083 17.238 57.606 26.109 57.606"></polyline>
                    <g id="Group-21">
                        <mask id="mask-2" fill="white">
                            <use xlink:href="#path-1"></use>
                        </mask>
                        <g id="Clip-16"></g>
                        <path d="M26.109,40.882 L4.739,40.882 C2.184,40.882 0.15,42.973 0.15,45.527 L0.15,57.606 L17.238,57.606 L30.811,48.083 L30.811,45.527 C30.811,42.973 28.665,40.882 26.109,40.882" id="Fill-15" fill="#FFFFFF" mask="url(#mask-2)"></path>
                        <path d="M119.079,7.433 L119.079,0 L137.662,0 L137.662,23.909 C137.662,28.231 136.564,31.465 134.335,33.608 C132.105,35.753 129.252,36.825 125.759,36.825 C121.402,36.825 117.603,35.147 114.353,31.794 L118.556,25.984 C120.735,28.336 123.018,29.511 125.404,29.511 C126.545,29.511 127.395,29.07 128.208,28.188 C129.019,27.306 129.299,25.984 129.299,24.221 L129.299,7.433 L119.079,7.433" id="Fill-17" fill="#FFFFFF" mask="url(#mask-2)"></path>
                        <polyline id="Fill-18" fill="#FFFFFF" mask="url(#mask-2)" points="172.04 0 172.04 7.433 154.386 7.433 154.386 14.866 170.181 14.866 170.181 22.299 154.386 22.299 154.386 29.732 172.968 29.732 172.968 36.236 146.024 36.236 146.024 0 172.04 0"></polyline>
                        <polyline id="Fill-19" fill="#FFFFFF" mask="url(#mask-2)" points="205.489 0 205.489 7.433 188.764 7.433 188.764 14.866 204.559 14.866 204.559 22.299 188.764 22.299 188.764 36.236 180.402 36.236 180.402 0 205.489 0"></polyline>
                        <polyline id="Fill-20" fill="#FFFFFF" mask="url(#mask-2)" points="237.079 0 237.079 7.433 220.354 7.433 220.354 14.866 236.15 14.866 236.15 22.299 220.354 22.299 220.354 36.236 211.993 36.236 211.993 0 237.079 0"></polyline>
                    </g>
                    <polyline id="Fill-22" fill="#FFFFFF" points="139.52 43.669 147.882 43.669 147.882 79.905 139.52 79.905 139.52 65.039 125.583 65.039 125.583 79.905 117.221 79.905 117.221 43.669 125.583 43.669 125.583 58.536 139.52 58.536 139.52 43.669"></polyline>
                    <polygon id="Fill-23" fill="#FFFFFF" points="157.173 79.905 165.536 79.905 165.536 43.669 157.173 43.669"></polygon>
                    <polyline id="Fill-24" fill="#FFFFFF" points="173.898 79.905 173.898 43.669 182.26 43.669 182.26 72.473 197.126 72.473 197.126 79.905 173.898 79.905"></polyline>
                    <polyline id="Fill-25" fill="#FFFFFF" points="236.15 56.755 226.135 76.189 221.311 76.189 211.993 56.755 211.993 79.905 203.63 79.905 203.63 43.669 214.413 43.669 223.75 63.588 233.138 43.669 243.583 43.669 243.583 79.905 236.15 79.905 236.15 56.755"></polyline>
                    <path d="M267.839,54.509 L263.274,65.039 L272.352,65.039 L267.839,54.509 L267.839,54.509 Z M278.785,79.905 L275.413,71.543 L260.213,71.543 L256.844,79.905 L248.232,79.905 L263.898,43.669 L271.73,43.669 L287.394,79.905 L278.785,79.905 L278.785,79.905 Z" id="Fill-26" fill="#FFFFFF"></path>
                    <polyline id="Fill-27" fill="#FFFFFF" points="316.984 43.669 325.346 43.669 325.346 79.905 316.96 79.905 299.331 56.858 299.331 79.905 291.898 79.905 291.898 43.669 299.169 43.669 316.984 66.663 316.984 43.669"></polyline>
                    <path d="M117.221,93.378 L325.346,93.378" id="Stroke-28" stroke="#FFFFFF"></path>
                    <path d="M125.899,113.189 L123.688,108.169 L121.473,113.189 L125.899,113.189 L125.899,113.189 Z M120.637,115.089 L119.417,117.86 L117.221,117.86 L122.589,105.677 L124.784,105.677 L130.152,117.86 L127.956,117.86 L126.736,115.089 L120.637,115.089 L120.637,115.089 Z" id="Fill-30" fill="#FFFFFF"></path>
                    <path d="M137.072,115.073 C137.629,115.723 138.385,116.047 139.337,116.047 C140.291,116.047 141.045,115.723 141.604,115.073 C142.161,114.421 142.439,113.538 142.439,112.422 L142.439,105.677 L144.496,105.677 L144.496,112.51 C144.496,114.265 144.014,115.615 143.049,116.563 C142.086,117.508 140.847,117.982 139.337,117.982 C137.827,117.982 136.59,117.508 135.626,116.563 C134.661,115.615 134.179,114.265 134.179,112.51 L134.179,105.677 L136.234,105.677 L136.234,112.422 C136.234,113.538 136.514,114.421 137.072,115.073" id="Fill-31" fill="#FFFFFF"></path>
                    <path d="M159.416,111.76 C159.416,108.971 157.818,107.578 154.623,107.578 L152.566,107.578 L152.566,115.926 L154.85,115.926 C156.325,115.926 157.454,115.574 158.238,114.871 C159.022,114.168 159.416,113.131 159.416,111.76 L159.416,111.76 Z M159.728,107.273 C160.903,108.335 161.489,109.813 161.489,111.707 C161.489,113.602 160.919,115.1 159.781,116.204 C158.642,117.309 156.899,117.86 154.552,117.86 L150.508,117.86 L150.508,105.677 L154.691,105.677 C156.875,105.677 158.555,106.209 159.728,107.273 L159.728,107.273 Z" id="Fill-32" fill="#FFFFFF"></path>
                    <polygon id="Fill-33" fill="#FFFFFF" points="166.926 117.86 168.983 117.86 168.983 105.677 166.926 105.677"></polygon>
                    <path d="M183.842,108.554 C183.01,107.694 181.992,107.264 180.784,107.264 C179.574,107.264 178.555,107.694 177.725,108.554 C176.893,109.414 176.479,110.456 176.479,111.682 C176.479,112.908 176.893,113.949 177.725,114.811 C178.555,115.67 179.574,116.1 180.784,116.1 C181.992,116.1 183.01,115.67 183.842,114.811 C184.672,113.949 185.088,112.908 185.088,111.682 C185.088,110.456 184.672,109.414 183.842,108.554 L183.842,108.554 Z M185.348,116.178 C184.119,117.381 182.595,117.982 180.784,117.982 C178.971,117.982 177.449,117.381 176.217,116.178 C174.985,114.977 174.37,113.477 174.37,111.682 C174.37,109.887 174.985,108.388 176.217,107.186 C177.449,105.982 178.971,105.381 180.784,105.381 C182.595,105.381 184.119,105.982 185.348,107.186 C186.581,108.388 187.197,109.887 187.197,111.682 C187.197,113.477 186.581,114.977 185.348,116.178 L185.348,116.178 Z" id="Fill-34" fill="#FFFFFF"></path>
                    <path d="M203.833,107.28 C203.234,107.28 202.744,107.402 202.36,107.648 C201.977,107.892 201.786,108.261 201.786,108.754 C201.786,109.248 201.977,109.625 202.36,109.887 C202.744,110.147 203.558,110.43 204.809,110.731 C206.057,111.034 206.999,111.458 207.632,112.003 C208.265,112.551 208.582,113.354 208.582,114.418 C208.582,115.482 208.181,116.344 207.378,117.006 C206.577,117.67 205.527,118 204.226,118 C202.318,118 200.629,117.343 199.151,116.03 L200.443,114.479 C201.674,115.548 202.953,116.082 204.276,116.082 C204.938,116.082 205.464,115.94 205.854,115.656 C206.244,115.37 206.438,114.993 206.438,114.523 C206.438,114.052 206.255,113.687 205.888,113.424 C205.523,113.164 204.893,112.924 203.999,112.71 C203.103,112.495 202.422,112.298 201.958,112.118 C201.493,111.938 201.082,111.701 200.721,111.412 C200,110.864 199.642,110.029 199.642,108.902 C199.642,107.774 200.051,106.906 200.87,106.295 C201.689,105.688 202.703,105.381 203.912,105.381 C204.69,105.381 205.462,105.51 206.229,105.766 C206.996,106.021 207.658,106.381 208.215,106.846 L207.119,108.396 C206.756,108.07 206.27,107.803 205.654,107.595 C205.038,107.386 204.43,107.28 203.833,107.28" id="Fill-35" fill="#FFFFFF"></path>
                    <path d="M220.686,111.769 C221.096,111.333 221.303,110.694 221.303,109.852 C221.303,109.01 221.043,108.415 220.52,108.065 C219.997,107.717 219.177,107.542 218.062,107.542 L215.971,107.542 L215.971,112.422 L218.358,112.422 C219.496,112.422 220.272,112.205 220.686,111.769 L220.686,111.769 Z M222.14,106.741 C222.99,107.449 223.414,108.542 223.414,110.017 C223.414,111.492 222.98,112.574 222.115,113.258 C221.25,113.944 219.921,114.287 218.133,114.287 L215.971,114.287 L215.971,117.86 L213.915,117.86 L213.915,105.677 L218.096,105.677 C219.944,105.677 221.292,106.032 222.14,106.741 L222.14,106.741 Z" id="Fill-36" fill="#FFFFFF"></path>
                    <polyline id="Fill-37" fill="#FFFFFF" points="237.181 105.677 237.181 107.612 230.681 107.612 230.681 110.836 236.519 110.836 236.519 112.667 230.681 112.667 230.681 115.926 237.391 115.926 237.391 117.86 228.625 117.86 228.625 105.677 237.181 105.677"></polyline>
                    <path d="M248.371,115.995 C249.08,115.995 249.69,115.877 250.2,115.638 C250.712,115.399 251.248,115.02 251.805,114.496 L253.13,115.856 C251.838,117.285 250.275,118 248.433,118 C246.59,118 245.062,117.407 243.849,116.222 C242.634,115.036 242.028,113.538 242.028,111.726 C242.028,109.913 242.645,108.402 243.883,107.195 C245.122,105.985 246.683,105.381 248.573,105.381 C250.459,105.381 252.038,106.078 253.304,107.473 L251.997,108.902 C251.416,108.344 250.867,107.955 250.349,107.733 C249.832,107.515 249.226,107.402 248.528,107.402 C247.296,107.402 246.263,107.802 245.426,108.597 C244.589,109.393 244.17,110.41 244.17,111.647 C244.17,112.885 244.586,113.919 245.417,114.748 C246.249,115.58 247.232,115.995 248.371,115.995" id="Fill-38" fill="#FFFFFF"></path>
                    <polygon id="Fill-39" fill="#FFFFFF" points="258.427 117.86 260.483 117.86 260.483 105.677 258.427 105.677"></polygon>
                    <path d="M273.642,113.189 L271.428,108.169 L269.214,113.189 L273.642,113.189 L273.642,113.189 Z M268.379,115.089 L267.159,117.86 L264.962,117.86 L270.331,105.677 L272.527,105.677 L277.895,117.86 L275.699,117.86 L274.479,115.089 L268.379,115.089 L268.379,115.089 Z" id="Fill-40" fill="#FFFFFF"></path>
                    <polyline id="Fill-41" fill="#FFFFFF" points="282.375 117.86 282.375 105.677 284.431 105.677 284.431 115.907 289.991 115.907 289.991 117.86 282.375 117.86"></polyline>
                    <polygon id="Fill-42" fill="#FFFFFF" points="295.028 117.86 297.083 117.86 297.083 105.677 295.028 105.677"></polygon>
                    <path d="M306.94,107.28 C306.341,107.28 305.851,107.402 305.467,107.648 C305.084,107.892 304.892,108.261 304.892,108.754 C304.892,109.248 305.084,109.625 305.467,109.887 C305.851,110.147 306.667,110.43 307.917,110.731 C309.164,111.034 310.107,111.458 310.739,112.003 C311.374,112.551 311.689,113.354 311.689,114.418 C311.689,115.482 311.288,116.344 310.486,117.006 C309.686,117.67 308.633,118 307.333,118 C305.426,118 303.737,117.343 302.26,116.03 L303.55,114.479 C304.782,115.548 306.061,116.082 307.384,116.082 C308.046,116.082 308.572,115.94 308.961,115.656 C309.352,115.37 309.544,114.993 309.544,114.523 C309.544,114.052 309.362,113.687 308.997,113.424 C308.63,113.164 308.001,112.924 307.106,112.71 C306.211,112.495 305.531,112.298 305.066,112.118 C304.602,111.938 304.19,111.701 303.829,111.412 C303.108,110.864 302.749,110.029 302.749,108.902 C302.749,107.774 303.158,106.906 303.977,106.295 C304.796,105.688 305.81,105.381 307.018,105.381 C307.797,105.381 308.57,105.51 309.336,105.766 C310.104,106.021 310.766,106.381 311.324,106.846 L310.225,108.396 C309.865,108.07 309.377,107.803 308.761,107.595 C308.146,107.386 307.538,107.28 306.94,107.28" id="Fill-43" fill="#FFFFFF"></path>
                    <polyline id="Fill-44" fill="#FFFFFF" points="321.624 107.56 321.624 117.86 319.569 117.86 319.569 107.56 315.871 107.56 315.871 105.677 325.32 105.677 325.32 107.56 321.624 107.56"></polyline>
                </g>
            </g>
        </g>
    </g>
</svg>