<svg width="800" height="426" viewBox="0 0 800 426" xmlns="http://www.w3.org/2000/svg"><path d="M800 351.808l-27.602 11.014 1.687 6.02 10.58 38.71c-2.647-1.36-6.1-1.743-9.588-.81-6.42 1.72-10.516 7.245-9.15 12.34 1.364 5.094 7.648 7.733 14.067 6.013 6.362-1.705 10.52-6.84 9.156-12.3h.005l.02.073-.005-.015c0-.006-.004-.012-.005-.018l-12.27-45.096L800 358.37v-6.565zM394.265 107.102l.007-.013c.003-.01.005-.02.01-.02l25.13-45.75h-.003l.41-.75-39.38-16.11-2.97 5.5-19.28 35.19c-.96-2.82-3.18-5.5-6.34-7.25-5.81-3.22-12.6-2.1-15.16 2.52-2.56 4.61.13 10.87 5.94 14.09 5.76 3.19 12.32 2.38 15.13-2.49l-.04.06v-.01l.01-.02 22.5-40.97 33.84 13.63-19.39 35.39c-.96-2.82-3.18-5.49-6.34-7.24-5.81-3.22-12.6-2.1-15.15 2.52-2.56 4.61.13 10.87 5.94 14.1 5.76 3.19 12.32 2.39 15.13-2.49v.01l-.04.06m83.62 86.21c-.23-6.57-4.76-11.75-9.87-11.69l-.01-.11h.02-.02c-.01 0-.02.05-.02.05l-46.69 1.84-5.75-36.01 40.32-1.61c-1.92 2.27-3.07 5.56-2.95 9.16.23 6.64 4.69 11.87 9.96 11.69 5.27-.19 9.27-5.71 9.04-12.36-.23-6.57-4.76-11.75-9.87-11.69l-.01-.11h.01-.02c-.01 0-.01.05-.02.05l-52.08 2.07-.92.03 6.47 42.054 6.2-.29 40.14-1.61c-1.92 2.273-3.07 5.55-2.948 9.16.23 6.64 4.65 11.877 9.92 11.693 5.27-.18 9.32-5.72 9.087-12.36m-210.3-110c-.23-6.57-4.76-11.75-9.878-11.69v-.11h.01-.02c-.01 0-.01.06-.02.06l-46.7 1.84-5.748-36.01 40.32-1.6c-1.92 2.27-3.07 5.552-2.948 9.16.23 6.64 4.69 11.87 9.96 11.69 5.27-.19 9.27-5.72 9.04-12.36-.23-6.57-4.76-11.75-9.88-11.69v-.11h.01-.02c-.006 0-.01.056-.02.056l-52.087 2.07-.92.04 6.48 42.05 6.2-.29 40.16-1.6c-1.92 2.27-3.07 5.55-2.946 9.16.23 6.64 4.65 11.88 9.92 11.69 5.27-.18 9.31-5.712 9.08-12.353m275.15 181.5l.752-2.67 36.04 5.68-.69 2.45-36.107-5.456zm26.98 48.735l.002-.02.005-.02 14.21-50.24.24-.86-42-6.824-1.64 5.97-10.9 38.708c-1.56-2.53-4.33-4.637-7.8-5.63-6.39-1.837-12.74.79-14.2 5.86-1.45 5.07 2.58 10.542 8.96 12.38 6.31 1.81 12.51-.43 14.18-5.8l.02.01-.02.09v-.027l.01-.03 11.12-39.302 36.11 5.46-9.414 33.41c-1.57-2.53-4.33-4.63-7.8-5.63-6.39-1.832-12.746.79-14.2 5.86-1.46 5.07 2.505 10.78 8.89 12.617 6.31 1.815 12.58-.68 14.11-5.56l.01.01.11-.4zM144.35 100.24l-1.004-2.587 32.19-17.153.922 2.37-32.118 17.372zm50.877 22.683l-.007-.017-.008-.02L176.32 74.21h-.002l-.322-.83-37.65 19.827 2.283 5.754 14.58 37.48c-2.78-1.07-6.25-1.09-9.62.2-6.21 2.38-9.71 8.3-7.82 13.23 1.88 4.93 8.4 6.87 14.6 4.49 6.13-2.35 9.73-7.86 7.83-13.16h.01l.03.09c0-.01-.01-.01-.01-.02l-.02-.03-14.77-38.08 32.12-17.37 12.59 32.35c-2.78-1.07-6.25-1.09-9.62.2-6.21 2.38-9.71 8.3-7.82 13.23 1.89 4.93 8.49 7.11 14.69 4.73 6.13-2.35 9.63-8.11 7.92-12.93h.01l-.15-.39zm397.038 60.338l-.01-.01-.01-.01-30.932-42.05-2.434 1.77 27.18 37.03c-2.96-.32-6.32.56-9.24 2.68-5.38 3.91-7.22 10.53-4.12 14.8 3.1 4.27 9.91 4.48 15.28.57 5.33-3.87 7.37-10.16 4.13-14.76l.09-.06.05.07m-295.58-36.4l.01-.01.01-.01 45.95-24.78-1.41-2.65-40.46 21.77c.73-2.88.33-6.33-1.37-9.52-3.12-5.87-9.43-8.62-14.08-6.14-4.66 2.47-5.82 9.19-2.7 15.05 3.09 5.82 9.03 8.72 14.04 6.16l.05.09-.08.04M477.73 280l.018-.005.02-.01 47.19-22.34-1.278-2.723-41.54 19.63c.88-2.84.66-6.31-.87-9.58-2.81-6.023-8.96-9.1-13.74-6.87-4.78 2.23-6.29 8.875-3.48 14.9 2.79 5.97 8.57 9.17 13.71 6.88l.05.1-.074.03M106.506 24.63l.01-.002h.02l51.98-4.856-.262-2.996-45.742 4.232c1.8-2.37 2.778-5.706 2.46-9.303-.576-6.62-5.305-11.613-10.56-11.153-5.253.46-8.94 6.19-8.36 12.81.57 6.56 4.91 11.55 10.52 11.15l.01.11-.08.008m630.34 353.887c-4.17-2.502-6.06-7.03-4.22-10.093 1.84-3.064 6.72-3.52 10.89-1.018 4.16 2.5 6.05 7.03 4.21 10.092-1.84 3.064-6.73 3.52-10.89 1.02zm13.64.654l.01-.01.01-.01 26.71-44.85-2.58-1.55-23.47 39.5c-.86-2.85-2.98-5.6-6.08-7.46-5.69-3.42-12.51-2.53-15.23 1.99-2.71 4.52-.25 10.87 5.45 14.3 5.65 3.39 12.23 2.82 15.21-1.96l-.04.07zM93.64 134.55c-2.502 4.164-7.03 6.054-10.093 4.213-3.07-1.84-3.52-6.724-1.02-10.887 2.5-4.164 7.03-6.054 10.09-4.213 3.06 1.84 3.52 6.724 1.02 10.888zm.654-13.643l-.013-.008-.01-.01-44.85-26.72-1.55 2.57 39.5 23.47c-2.85.86-5.6 2.98-7.46 6.08-3.43 5.7-2.54 12.51 1.99 15.23 4.52 2.71 10.87.25 14.29-5.45 3.39-5.65 2.81-12.23-1.96-15.21v-.01l.07.05zm256.404 72.14c2.72-4.028 7.34-5.68 10.3-3.68 2.97 2 3.17 6.9.45 10.93-2.71 4.025-7.33 5.674-10.3 3.676-2.96-1.997-3.16-6.9-.44-10.925zm-1.36 13.59l.02.007.015.01 43.39 29.027 1.683-2.49-38.21-25.49c2.89-.71 5.747-2.68 7.766-5.68 3.72-5.51 3.19-12.36-1.182-15.31-4.37-2.95-10.842-.81-14.56 4.69-3.68 5.46-3.45 12.07 1.164 15.29l-.005.01-.07-.04zm303.55 107.46c-5.704-9.68-2.83-18.194-2.803-18.246l.046-.09-2.54-1.29-20.65 41.04c-1.06-2.78-3.37-5.37-6.59-7.01-5.92-3.01-12.66-1.65-15.05 3.05-2.39 4.7.51 10.87 6.43 13.88 5.87 2.99 12.4 1.96 15.04-3.01l.17.08-.04.08.01-.01.01-.02 19.23-38.3c.32 2.77 1.47 6.43 4.27 11.82 5.57 10.67-4.04 13.92-4.04 13.92 6.84.27 12.03-6.51 6.52-15.85M394.87 148.16c-.1-11.236 6.647-17.173 6.69-17.205l.09-.056-1.55-2.39-38.4 25.21c.48-2.94-.23-6.35-2.19-9.37-3.62-5.58-10.14-7.77-14.56-4.89-4.42 2.87-4.99 9.66-1.37 15.23 3.59 5.52 9.76 7.89 14.53 4.9l.1.15-.07.04.02-.01.02-.01 35.8-23.56c-1.11 2.55-1.95 6.3-2.21 12.37-.513 12.02-10.454 10.03-10.454 10.03 5.78 3.65 13.67.37 13.57-10.47M41.27 164.58c10.522-3.94 18.408.37 18.455.404l.08.062 1.716-2.276-36.82-27.462c2.93-.56 5.88-2.383 8.06-5.267 4-5.3 3.83-12.18-.38-15.35s-10.78-1.38-14.78 3.93c-3.96 5.26-4.08 11.87.36 15.33l-.11.15-.06-.05.02.01.02.01 34.38 25.59c-2.78-.17-6.59.33-12.38 2.16-11.47 3.63-13-6.39-13-6.39-1.45 6.69 4.33 12.98 14.49 9.17M458.1 73.25c-10.97 2.44-18.18-2.93-18.22-2.97l-.07-.07-2.015 2.02 32.646 32.32c-2.97.15-6.15 1.54-8.7 4.1-4.7 4.7-5.48 11.53-1.75 15.26 3.73 3.73 10.49 2.87 15.19-1.83 4.66-4.65 5.69-11.19 1.78-15.23l.13-.13.06.06-.01-.01-.01-.01-30.48-30.12c2.73.56 6.57.6 12.56-.41 11.87-1.99 11.99 8.14 11.99 8.14 2.37-6.42-2.48-13.45-13.06-11.1M125.5 63.94c-10.31-4.48-12.99-13.06-13-13.12l-.016-.1-2.82.45 7.41 45.34c-2.49-1.63-5.885-2.37-9.45-1.804-6.564 1.04-11.216 6.11-10.39 11.32.825 5.21 6.797 8.49 13.36 7.45 6.507-1.03 11.18-5.7 10.39-11.27l.18-.03.015.08v-.03l-6.95-42.286c1.88 2.05 4.97 4.343 10.41 7.05 10.77 5.36 4.91 13.633 4.91 13.633 5.69-3.8 5.9-12.34-4.04-16.66m431.4 136.14c-5.71-9.68-2.84-18.193-2.81-18.245l.04-.09-2.54-1.294-20.65 41.035c-1.06-2.79-3.37-5.38-6.59-7.02-5.92-3.02-12.66-1.65-15.06 3.05-2.4 4.7.51 10.86 6.43 13.88 5.87 2.99 12.4 1.95 15.03-3.02l.16.08-.04.07v-.02l.01-.02 19.23-38.3c.32 2.76 1.46 6.43 4.27 11.82 5.56 10.66-4.04 13.91-4.04 13.91 6.84.27 12.03-6.52 6.52-15.86m143.97 189.54c-.11-1.11-.33-2.29-.71-3.54-2.74-9.24.48-16.07 1.47-17.87l2.49-2.89c-.347 2.75-.08 6.6 1.33 12.44 1.845 7.66-1.84 10.68-4.596 11.85zm12.86-21.36c1.84 7.66-1.84 10.68-4.6 11.85-.11-1.1-.33-2.28-.71-3.54-2.87-9.66.79-16.7 1.6-18.08l2.38-2.76c-.366 2.77-.107 6.63 1.32 12.54zm-4.54 12.95c5.53-.03 10.19-5.16 7.53-14.11-3.2-10.77 1.75-18.25 1.79-18.3l.06-.07-2.35-2.04-29.97 34.82c-.36-2.95-1.97-6.03-4.69-8.4-5.02-4.36-11.89-4.67-15.35-.68-3.46 3.98-2.135 10.66 2.88 15.02 4.97 4.32 11.56 4.89 15.32.71l-.076-.07-.055.06.01-.01.01-.02 11.47-13.23c-.33 2.74-.03 6.59 1.36 12.37 2.815 11.69-7.23 12.57-7.23 12.57 5.505 1.6 11.117-1.85 10.98-9.13 4.495-.03 8.39-3.43 8.27-9.51zM533.39 157.86c-.642-.904-1.428-1.812-2.38-2.714-6.988-6.628-7.616-14.156-7.65-16.208l.712-3.745c1.078 2.55 3.234 5.75 7.375 10.11 5.43 5.71 3.748 10.16 1.944 12.55zm.46-24.927c5.432 5.71 3.75 10.163 1.945 12.553-.642-.903-1.428-1.812-2.38-2.714-7.313-6.937-7.662-14.86-7.654-16.46l.69-3.577c1.07 2.572 3.22 5.788 7.41 10.192zm2.55 13.48c4.776-2.8 6.25-9.57-.532-16-8.152-7.73-7.61-16.685-7.6-16.74l.02-.1-3.05-.595-8.54 45.135c-1.783-2.384-4.72-4.24-8.263-4.93-6.523-1.268-12.626 1.9-13.632 7.08-1.007 5.175 3.484 10.3 10.008 11.57 6.47 1.255 12.46-1.54 13.63-7.046l-.09-.02-.01.08.01-.014.01-.017 3.33-17.188c1.09 2.544 3.27 5.722 7.37 10.033 8.29 8.72.03 14.51.03 14.51 5.57-1.36 8.71-7.15 4.95-13.39 3.88-2.27 5.55-7.16 2.41-12.37zm-280.01-3.557c-.642-.904-1.428-1.812-2.38-2.714-6.988-6.63-7.616-14.157-7.65-16.21l.712-3.744c1.078 2.555 3.234 5.75 7.375 10.11 5.43 5.712 3.748 10.165 1.944 12.555zm.46-24.927c5.432 5.71 3.75 10.16 1.945 12.55-.642-.9-1.428-1.81-2.38-2.71-7.313-6.94-7.662-14.86-7.654-16.46l.69-3.58c1.07 2.57 3.22 5.79 7.41 10.19zm2.55 13.48c4.776-2.8 6.25-9.57-.532-16-8.152-7.73-7.61-16.69-7.6-16.74l.02-.1-3.05-.6-8.54 45.13c-1.783-2.38-4.72-4.24-8.263-4.93-6.523-1.27-12.626 1.9-13.632 7.08-1.007 5.17 3.484 10.3 10.008 11.57 6.47 1.25 12.46-1.54 13.63-7.05l-.09-.02-.01.08.01-.02.01-.02 3.33-17.19c1.09 2.54 3.27 5.72 7.37 10.03 8.29 8.72.03 14.5.03 14.5 5.57-1.37 8.71-7.16 4.95-13.39 3.88-2.27 5.55-7.17 2.41-12.37zM7.38 106.85c-.643-.905-1.43-1.813-2.38-2.715-6.99-6.62-7.618-14.15-7.653-16.2l.714-3.747c1.08 2.555 3.24 5.75 7.38 10.11 5.43 5.71 3.75 10.165 1.95 12.555zm.46-24.928c5.43 5.713 3.747 10.166 1.943 12.556-.642-.902-1.428-1.81-2.38-2.713C.09 84.837-.257 76.915-.25 75.315l.68-3.58c1.067 2.573 3.223 5.79 7.41 10.193zm2.547 13.48c4.778-2.795 6.25-9.567-.53-15.998-8.153-7.73-7.61-16.685-7.6-16.74l.02-.1-3.05-.595-8.54 45.13c-1.783-2.38-4.72-4.24-8.263-4.93-6.523-1.26-12.627 1.91-13.633 7.08-1 5.18 3.49 10.3 10.01 11.57 6.47 1.26 12.46-1.54 13.62-7.04l-.09-.02-.01.08.01-.01.01-.02 3.32-17.19c1.09 2.54 3.27 5.72 7.37 10.03 8.29 8.72.03 14.5.03 14.5 5.57-1.36 8.7-7.15 4.94-13.39 3.88-2.27 5.55-7.16 2.41-12.37zm158.546-36.96c-.008-1.11-.13-2.304-.392-3.59-1.92-9.436 1.88-15.963 3.03-17.664l2.73-2.66c-.58 2.715-.65 6.568.25 12.513 1.17 7.8-2.76 10.48-5.61 11.41zm14.674-20.155c1.17 7.796-2.76 10.48-5.61 11.402-.008-1.11-.13-2.31-.392-3.59-2.013-9.88 2.245-16.57 3.17-17.87l2.61-2.54c-.602 2.71-.68 6.59.222 12.59zm-5.644 12.503c5.516.452 10.606-4.25 8.74-13.407-2.244-11.01 3.335-18.03 3.377-18.07l.073-.07-2.157-2.24-32.886 32.08c-.092-2.98-1.43-6.18-3.94-8.78-4.616-4.78-11.433-5.688-15.227-2.02-3.794 3.66-3.054 10.433 1.562 15.213 4.576 4.74 11.09 5.884 15.2 2.044l-.07-.07-.058.06.01-.01.014-.015 12.59-12.174c-.56 2.71-.6 6.57.28 12.45 1.79 11.9-8.3 11.9-8.3 11.9 5.35 2.08 11.24-.87 11.74-8.13 4.48.37 8.66-2.68 9.07-8.75zM697.43 297.32c-9.76-2.52-13.905-9.28-14.674-10.683l-1.138-3.46c2.18 1.735 5.624 3.5 11.42 5.325 7.52 2.365 8.208 7.075 7.79 10.04-1-.478-2.13-.892-3.397-1.22zm-3.834-12.003c-10.878-2.81-14.733-10.904-14.75-10.96l-.032-.09-2.98.97 14.414 43.616c-2.715-1.22-6.184-1.42-9.618-.305-6.32 2.057-10.122 7.788-8.492 12.8 1.63 5.02 8.042 7.32 14.363 5.27 6.27-2.034 10.15-7.385 8.5-12.764l-.07.024.03.08v-.036l-9.4-28.68c2.18 1.718 5.64 3.46 11.37 5.265 11.48 3.61 7.05 12.67 7.05 12.67 4.21-3.89 4.18-10.49-2.14-14.12 2.83-4.755.82-11.39-8.23-13.725zm-266.09-78.15c-9.312 3.86-16.692.958-18.15.3l-2.99-2.076c2.783.07 6.598-.59 12.324-2.62 7.43-2.63 10.813.71 12.263 3.34-1.087.22-2.237.57-3.447 1.07zm-10.286-7.28c-10.38 4.306-18.33.16-18.378.126l-.083-.06-1.8 2.566 37.76 26.16c-2.9.66-5.8 2.58-7.87 5.54-3.81 5.44-3.4 12.31.92 15.33 4.32 3.02 10.83 1 14.64-4.44 3.78-5.4 3.66-12.01-.9-15.31l-.04.06.06.04-.02-.01-.02-.01-24.77-17.24c2.77.05 6.58-.63 12.25-2.64 11.33-4.03 13.26 5.88 13.26 5.88 1.02-5.65-2.98-10.89-10.21-9.99-.61-5.5-6.21-9.59-14.84-6.01zM296.506 55.177c-9.312 3.86-16.692.956-18.15.3l-2.99-2.078c2.783.07 6.598-.59 12.324-2.63 7.43-2.64 10.813.71 12.263 3.33-1.087.22-2.237.56-3.447 1.07zm-10.286-7.28c-10.38 4.304-18.33.158-18.378.124l-.083-.06-1.8 2.56 37.76 26.16c-2.9.66-5.8 2.59-7.87 5.54-3.81 5.45-3.4 12.31.92 15.34 4.32 3.03 10.83 1.01 14.64-4.44 3.78-5.39 3.66-12-.9-15.31l-.04.06.06.05-.02-.01-.02-.01-24.77-17.25c2.78.06 6.58-.63 12.25-2.64 11.33-4.02 13.26 5.88 13.26 5.88 1.02-5.64-2.98-10.89-10.21-9.99-.61-5.5-6.21-9.59-14.84-6.01zm371.434 189.58l2.658.803-6.295 35.934-2.435-.73 6.072-36.007zm-47.642-26.97c-1.922 6.285.67 12.657 5.526 14.266l-.032.11h-.008l.018.01c.008.004.03-.045.04-.043l39.127 11.77-6.07 35.996-33.246-9.99c2.556-1.524 4.712-4.253 5.767-7.706 1.943-6.355-.57-12.757-5.614-14.3-5.043-1.54-10.628 2.383-12.57 8.738-1.922 6.286.67 12.658 5.526 14.267l-.033.106h-.007l.018.01c.008.01.03-.04.04-.04l49.916 15 .89.27 7.57-41.87-5.95-1.74-38.48-11.55c2.56-1.52 4.71-4.25 5.77-7.7 1.95-6.35-.53-12.74-5.57-14.28-5.04-1.54-10.67 2.37-12.61 8.72zM66.852 69.65l.3 2.76-35.538 8.247-.278-2.527 35.516-8.48zm6.21-54.392c-6.535.687-11.387 5.563-10.97 10.66l-.11.012-.002-.007.002.018c0 .01.054.02.056.02l4.452 40.62-35.506 8.48-3.796-34.5c2.404 1.76 5.757 2.68 9.348 2.3 6.61-.69 11.52-5.51 10.97-10.75-.552-5.24-6.347-8.85-12.956-8.15-6.535.69-11.386 5.57-10.97 10.66l-.11.01v-.01.02c0 .01.055.01.057.02l5.698 51.81h.002l.1.92L70.825 78l-.72-6.153-4.398-39.94C68.11 33.66 71.46 34.58 75.05 34.2c6.61-.696 11.524-5.47 10.972-10.715-.55-5.245-6.35-8.893-12.96-8.2z" fill="#333" fill-rule="evenodd"/></svg>