<?xml version="1.0" encoding="UTF-8" standalone="no"?>
<svg width="800px" height="426px" viewBox="0 0 800 426" version="1.1" xmlns="http://www.w3.org/2000/svg" xmlns:xlink="http://www.w3.org/1999/xlink">
    <!-- Generator: Sketch 40.1 (33804) - http://www.bohemiancoding.com/sketch -->
    <title>Notes</title>
    <desc>Created with Sketch.</desc>
    <defs></defs>
    <g id="Page-1" stroke="none" stroke-width="1" fill="none" fill-rule="evenodd">
        <g id="Home-Page" transform="translate(0.000000, -67.000000)" fill="#333333">
            <g id="Hero-Section" transform="translate(-34.000000, 0.000000)">
                <g id="Notes" transform="translate(0.000000, 63.000000)">
                    <path d="M834,355.807885 L806.397614,366.821667 L808.085174,372.841661 L818.66546,411.551728 C816.018011,410.191771 812.564164,409.808605 809.076919,410.743009 C802.658045,412.462941 798.561338,417.987309 799.926338,423.081561 C801.291472,428.176307 807.575436,430.814895 813.994311,429.094962 C820.355601,427.39046 824.513992,422.254009 823.150027,416.796326 L823.154696,416.795075 L823.17415,416.867681 L823.170312,416.853357 C823.168592,416.846936 823.166485,416.841148 823.164764,416.834727 L810.895604,371.738689 L834,362.373174 L834,355.807885 Z" id="Combined-Shape"></path>
                    <path d="M441.696128,98.2130847 L441.696128,98.1982558 C441.696128,98.1916084 441.695591,98.1854723 441.695591,98.1788249 L441.495259,45.9812624 L441.492574,45.9812624 L441.489352,45.1293704 L399.237157,50.1323186 L399.309126,56.3839584 L399.509995,96.5133913 C397.304738,94.5145642 394.067749,93.2505323 390.457488,93.2505323 C383.812179,93.2505323 378.425253,97.5263554 378.425253,102.800314 C378.425253,108.074783 383.812179,112.249872 390.457488,112.249872 C397.04318,112.249872 402.389288,108.364713 402.484351,102.739976 L402.489185,102.739976 L402.489185,102.815143 L402.489185,102.800314 C402.489185,102.793666 402.488648,102.78753 402.488648,102.780883 L402.309263,56.0459629 L438.514995,51.5584452 L438.716937,91.9113335 C436.511681,89.9125064 433.274691,88.6484745 429.66443,88.6484745 C423.019122,88.6484745 417.632195,92.9242976 417.632195,98.1982558 C417.632195,103.472725 423.019122,107.647815 429.66443,107.647815 C436.250122,107.647815 441.596231,103.762655 441.691294,98.1379177 L441.696128,98.1379177 L441.696128,98.2130847" id="Fill-52-Copy" transform="translate(410.060690, 78.689621) rotate(29.000000) translate(-410.060690, -78.689621) "></path>
                    <path d="M497.309977,145.271589 C490.737712,145.271589 485.400197,149.618999 485.28365,154.732397 L485.173012,154.732397 L485.173012,154.719102 L485.173012,154.73751 C485.173012,154.74518 485.226183,154.753362 485.226183,154.761543 L485.431885,201.491861 L449.239043,205.979379 L449.044082,165.627002 C451.249339,167.625317 454.489014,168.889349 458.099812,168.889349 C464.74512,168.889349 470.133121,164.613526 470.133121,159.339568 C470.133121,154.065098 464.747269,149.873646 458.10196,149.873646 C451.529695,149.873646 446.193254,154.221057 446.076708,159.334455 L445.966069,159.334455 L445.966069,159.32116 L445.966069,159.339568 C445.966069,159.347238 446.01924,159.35542 446.01924,159.363601 L446.271668,211.49111 L446.273816,211.49111 L446.277576,212.408453 L488.52977,207.405505 L488.458338,201.202954 L488.25747,161.024944 C490.462726,163.02326 493.699179,164.287292 497.309977,164.287292 C503.955285,164.287292 509.341675,160.053398 509.341675,154.77944 C509.341675,149.50497 503.955285,145.271589 497.309977,145.271589" id="Fill-53" transform="translate(477.653872, 178.840021) rotate(88.000000) translate(-477.653872, -178.840021) "></path>
                    <path d="M287.003987,35.2715886 C280.431722,35.2715886 275.094207,39.6189992 274.977661,44.7323968 L274.867022,44.7323968 L274.867022,44.719102 L274.867022,44.7375102 C274.867022,44.7451803 274.920193,44.7533617 274.920193,44.7615432 L275.125895,91.491861 L238.933053,95.9793787 L238.738093,55.6270017 C240.943349,57.6253175 244.183024,58.8893494 247.793822,58.8893494 C254.439131,58.8893494 259.827131,54.6135263 259.827131,49.339568 C259.827131,44.0650984 254.441279,39.8736464 247.795971,39.8736464 C241.223705,39.8736464 235.887265,44.221057 235.770718,49.3344546 L235.660079,49.3344546 L235.660079,49.3211598 L235.660079,49.339568 C235.660079,49.3472381 235.71325,49.3554196 235.71325,49.363601 L235.965678,101.49111 L235.967827,101.49111 L235.971586,102.408453 L278.223781,97.4055053 L278.152349,91.202954 L277.95148,51.0249439 C280.156737,53.0232596 283.393189,54.2872915 287.003987,54.2872915 C293.649296,54.2872915 299.035685,50.0533983 299.035685,44.7794401 C299.035685,39.5049705 293.649296,35.2715886 287.003987,35.2715886" id="Fill-53-Copy" transform="translate(267.347882, 68.840021) rotate(88.000000) translate(-267.347882, -68.840021) "></path>
                    <path d="M570.936738,270.154872 L570.92707,267.378809 L607.134414,262.903563 L607.146229,265.446967 L570.936738,270.154872 L570.936738,270.154872 Z M610.305879,309.563316 L610.305879,309.544908 L610.305879,309.521898 L610.116827,257.310529 L610.115215,257.310529 L610.111993,256.420798 L567.85765,261.437041 L567.926397,267.627831 L568.112764,307.838056 C565.908045,305.838717 562.672129,304.577753 559.061331,304.576731 C552.416023,304.574174 547.028022,308.849486 547.026411,314.123444 C547.024262,319.397914 552.409041,323.550504 559.054349,323.553061 C565.621243,323.555106 570.956073,319.693979 571.083898,314.069242 L571.098937,314.069242 L571.098937,314.159238 C571.098937,314.150545 571.09464,314.142364 571.09464,314.133671 C571.09464,314.122421 571.091417,314.112195 571.091417,314.101456 L570.948554,273.250523 L607.161268,268.542107 L607.321318,303.256452 C605.117136,301.257113 601.880683,299.99257 598.270422,299.991036 C591.625114,299.98899 586.237113,304.262257 586.234965,309.536726 C586.232816,314.810685 591.617595,319.211786 598.262903,319.213831 C604.829797,319.216388 610.164627,315.091922 610.292452,309.978524 L610.305879,309.978524 L610.305879,309.563316 L610.305879,309.563316 Z" id="Fill-54" transform="translate(578.666145, 289.986930) rotate(16.000000) translate(-578.666145, -289.986930) "></path>
                    <path d="M184.936738,100.154872 L184.92707,97.3788088 L221.134414,92.9035632 L221.146229,95.4469672 L184.936738,100.154872 L184.936738,100.154872 Z M224.305879,139.563316 L224.305879,139.544908 L224.305879,139.521898 L224.116827,87.3105289 L224.115215,87.3105289 L224.111993,86.4207977 L181.85765,91.4370408 L181.926397,97.6278312 L182.112764,137.838056 C179.908045,135.838717 176.672129,134.577753 173.061331,134.576731 C166.416023,134.574174 161.028022,138.849486 161.026411,144.123444 C161.024262,149.397914 166.409041,153.550504 173.054349,153.553061 C179.621243,153.555106 184.956073,149.693979 185.083898,144.069242 L185.098937,144.069242 L185.098937,144.159238 C185.098937,144.150545 185.09464,144.142364 185.09464,144.133671 C185.09464,144.122421 185.091417,144.112195 185.091417,144.101456 L184.948554,103.250523 L221.161268,98.5421067 L221.321318,133.256452 C219.117136,131.257113 215.880683,129.99257 212.270422,129.991036 C205.625114,129.98899 200.237113,134.262257 200.234965,139.536726 C200.232816,144.810685 205.617595,149.211786 212.262903,149.213831 C218.829797,149.216388 224.164627,145.091922 224.292452,139.978524 L224.305879,139.978524 L224.305879,139.563316 L224.305879,139.563316 Z" id="Fill-54-Copy" transform="translate(192.666145, 119.986930) rotate(-21.000000) translate(-192.666145, -119.986930) "></path>
                    <path d="M615.985309,198.452439 L615.985309,198.43761 L615.985309,198.418691 L615.679709,146.21397 L612.671516,146.21397 L612.90085,192.150688 C610.695594,190.151861 607.459141,188.887829 603.848343,188.887829 C597.203572,188.887829 591.816645,193.163141 591.816645,198.43761 C591.816645,203.711569 597.203572,207.884612 603.848343,207.884612 C610.435646,207.884612 615.782829,203.995362 615.875744,198.370625 L615.985309,198.370625 L615.985309,198.452439" id="Fill-34" transform="translate(603.900977, 177.049291) rotate(-36.000000) translate(-603.900977, -177.049291) "></path>
                    <path d="M355.983555,151.549286 L355.983555,151.534457 L355.983555,151.515538 L355.677955,99.3108167 L352.669762,99.3108167 L352.899096,145.247535 C350.69384,143.248708 347.457387,141.984676 343.846589,141.984676 C337.201818,141.984676 331.814891,146.259988 331.814891,151.534457 C331.814891,156.808416 337.201818,160.98146 343.846589,160.98146 C350.433892,160.98146 355.781075,157.092209 355.87399,151.467472 L355.983555,151.467472 L355.983555,151.549286" id="Fill-34-Copy-2" transform="translate(343.899223, 130.146138) rotate(62.000000) translate(-343.899223, -130.146138) "></path>
                    <path d="M538.137683,285.386842 L538.137683,285.372013 L538.137683,285.353094 L537.832083,233.148372 L534.823891,233.148372 L535.053224,279.085091 C532.847968,277.086264 529.611515,275.822232 526.000717,275.822232 C519.355946,275.822232 513.96902,280.097544 513.96902,285.372013 C513.96902,290.645971 519.355946,294.819015 526.000717,294.819015 C532.588021,294.819015 537.935203,290.929765 538.028118,285.305028 L538.137683,285.305028 L538.137683,285.386842" id="Fill-34-Copy" transform="translate(526.053351, 263.983694) rotate(65.000000) translate(-526.053351, -263.983694) "></path>
                    <path d="M172.855534,36.1289707 L172.855534,36.1141419 L172.855534,36.0952223 L172.549935,-16.109499 L169.541742,-16.109499 L169.771076,29.8272195 C167.56582,27.8283924 164.329367,26.5643605 160.718569,26.5643605 C154.073797,26.5643605 148.686871,30.8396723 148.686871,36.1141419 C148.686871,41.3881001 154.073797,45.5611439 160.718569,45.5611439 C167.305872,45.5611439 172.653055,41.6718937 172.74597,36.0471564 L172.855534,36.0471564 L172.855534,36.1289707" id="Fill-34-Copy-3" transform="translate(160.771203, 14.725822) rotate(85.000000) translate(-160.771203, -14.725822) "></path>
                    <path d="M785.195079,386.497362 C780.337715,386.497362 776.385333,383.589885 776.385333,380.016131 C776.385333,376.441866 780.337715,373.534388 785.195079,373.534388 C790.052444,373.534388 794.003752,376.441866 794.003752,380.016131 C794.003752,383.589885 790.052444,386.497362 785.195079,386.497362 L785.195079,386.497362 Z M797.22624,380.03096 L797.22624,380.016131 C797.22624,380.009995 797.225703,380.003348 797.225703,379.997211 L797.025372,327.79249 L794.017716,327.79249 L794.24705,373.728697 C792.041793,371.72987 788.805341,370.46635 785.195079,370.46635 C778.549771,370.46635 773.162845,374.741661 773.162845,380.016131 C773.162845,385.290089 778.549771,389.463133 785.195079,389.463133 C791.781309,389.463133 797.128491,385.573883 797.221943,379.949146 L797.22624,379.949146 L797.22624,380.03096 L797.22624,380.03096 Z" id="Fill-35" transform="translate(785.194542, 358.627812) rotate(31.000000) translate(-785.194542, -358.627812) "></path>
                    <path d="M103.753507,152.064093 C98.8961426,152.064093 94.9437606,149.156615 94.9437606,145.582862 C94.9437606,142.008597 98.8961426,139.101119 103.753507,139.101119 C108.610871,139.101119 112.562179,142.008597 112.562179,145.582862 C112.562179,149.156615 108.610871,152.064093 103.753507,152.064093 L103.753507,152.064093 Z M115.784667,145.597691 L115.784667,145.582862 C115.784667,145.576726 115.78413,145.570078 115.78413,145.563942 L115.583799,93.359221 L112.576143,93.359221 L112.805477,139.295428 C110.600221,137.296601 107.363768,136.03308 103.753507,136.03308 C97.1081986,136.03308 91.7212721,140.308392 91.7212721,145.582862 C91.7212721,150.85682 97.1081986,155.029864 103.753507,155.029864 C110.339736,155.029864 115.686919,151.140614 115.780371,145.515876 L115.784667,145.515876 L115.784667,145.597691 L115.784667,145.597691 Z" id="Fill-35-Copy-2" transform="translate(103.752970, 124.194542) rotate(-59.000000) translate(-103.752970, -124.194542) "></path>
                    <path d="M407.805995,240.497362 C402.94863,240.497362 398.996248,237.589885 398.996248,234.016131 C398.996248,230.441866 402.94863,227.534388 407.805995,227.534388 C412.663359,227.534388 416.614667,230.441866 416.614667,234.016131 C416.614667,237.589885 412.663359,240.497362 407.805995,240.497362 L407.805995,240.497362 Z M419.837155,234.03096 L419.837155,234.016131 C419.837155,234.009995 419.836618,234.003348 419.836618,233.997211 L419.636287,181.79249 L416.628631,181.79249 L416.857965,227.728697 C414.652708,225.72987 411.416256,224.46635 407.805995,224.46635 C401.160686,224.46635 395.77376,228.741661 395.77376,234.016131 C395.77376,239.290089 401.160686,243.463133 407.805995,243.463133 C414.392224,243.463133 419.739406,239.573883 419.832859,233.949146 L419.837155,233.949146 L419.837155,234.03096 L419.837155,234.03096 Z" id="Fill-35-Copy" transform="translate(407.805458, 212.627812) rotate(124.000000) translate(-407.805458, -212.627812) "></path>
                    <path d="M681.255755,310.018357 C671.777343,303.985059 670.472235,295.093372 670.472235,295.035079 L670.472235,294.933322 L667.622481,294.933322 L667.851815,340.870041 C665.646558,338.871214 662.409569,337.607182 658.799308,337.607182 C652.153999,337.607182 646.76761,341.882494 646.76761,347.156963 C646.76761,352.430921 652.153999,356.603965 658.799308,356.603965 C665.386074,356.603965 670.733793,352.714715 670.826709,347.089978 L671.009316,347.089978 L671.009316,347.171792 L671.009316,347.156963 L671.009316,347.138044 L670.755814,304.282659 C672.293478,306.603118 674.978885,309.348502 679.927553,312.873678 C689.725529,319.85142 682.644648,327.106309 682.644648,327.106309 C688.861365,324.242806 690.403326,315.842516 681.255755,310.018357" id="Fill-38" transform="translate(667.239781, 325.768644) rotate(27.000000) translate(-667.239781, -325.768644) "></path>
                    <path d="M422.026594,133.21324 C412.548182,127.179942 411.243074,118.288255 411.243074,118.229962 L411.243074,118.128206 L408.39332,118.128206 L408.622654,164.064924 C406.417397,162.066097 403.180408,160.802065 399.570147,160.802065 C392.924838,160.802065 387.538449,165.077377 387.538449,170.351847 C387.538449,175.625805 392.924838,179.798849 399.570147,179.798849 C406.156913,179.798849 411.504632,175.909598 411.597548,170.284861 L411.780155,170.284861 L411.780155,170.366675 L411.780155,170.351847 L411.780155,170.332927 L411.526653,127.477542 C413.064317,129.798002 415.749724,132.543385 420.698392,136.068561 C430.496368,143.046304 423.415487,150.301192 423.415487,150.301192 C429.632204,147.437689 431.174165,139.0374 422.026594,133.21324" id="Fill-38-Copy-3" transform="translate(408.010620, 148.963527) rotate(57.000000) translate(-408.010620, -148.963527) "></path>
                    <path d="M85.1411323,132.156675 C75.6627197,126.123378 74.3576119,117.231691 74.3576119,117.173398 L74.3576119,117.071641 L71.5078579,117.071641 L71.7371917,163.00836 C69.5319354,161.009533 66.2949458,159.745501 62.6846846,159.745501 C56.0393763,159.745501 50.6529869,164.020812 50.6529869,169.295282 C50.6529869,174.56924 56.0393763,178.742284 62.6846846,178.742284 C69.2714509,178.742284 74.6191705,174.853034 74.7120856,169.228297 L74.8946933,169.228297 L74.8946933,169.310111 L74.8946933,169.295282 L74.8946933,169.276362 L74.6411908,126.420977 C76.1788549,128.741437 78.8642619,131.48682 83.81293,135.011997 C93.6109061,141.989739 86.5300249,149.244627 86.5300249,149.244627 C92.7467421,146.381125 94.2887029,137.980835 85.1411323,132.156675" id="Fill-38-Copy-5" transform="translate(71.125158, 147.906963) rotate(127.000000) translate(-71.125158, -147.906963) "></path>
                    <path d="M507.29585,82.5295888 C497.817438,76.496291 496.51233,67.6046039 496.51233,67.5463112 L496.51233,67.4445546 L493.662576,67.4445546 L493.89191,113.381273 C491.686653,111.382446 488.449664,110.118414 484.839402,110.118414 C478.194094,110.118414 472.807705,114.393726 472.807705,119.668195 C472.807705,124.942154 478.194094,129.115197 484.839402,129.115197 C491.426169,129.115197 496.773888,125.225947 496.866803,119.60121 L497.049411,119.60121 L497.049411,119.683024 L497.049411,119.668195 L497.049411,119.649276 L496.795909,76.7938907 C498.333573,79.1143505 501.01898,81.8597337 505.967648,85.38491 C515.765624,92.3626523 508.684743,99.6175408 508.684743,99.6175408 C514.90146,96.7540382 516.443421,88.3537486 507.29585,82.5295888" id="Fill-38-Copy-2" transform="translate(493.279876, 98.279876) rotate(-45.000000) translate(-493.279876, -98.279876) "></path>
                    <path d="M162.059806,69.9079534 C152.581393,63.8746556 151.276286,54.9829685 151.276286,54.9246758 L151.276286,54.8229192 L148.426532,54.8229192 L148.655865,100.759638 C146.450609,98.7608106 143.21362,97.4967787 139.603358,97.4967787 C132.95805,97.4967787 127.571661,101.77209 127.571661,107.04656 C127.571661,112.320518 132.95805,116.493562 139.603358,116.493562 C146.190125,116.493562 151.537844,112.604312 151.630759,106.979575 L151.813367,106.979575 L151.813367,107.061389 L151.813367,107.04656 L151.813367,107.02764 L151.559865,64.1722553 C153.097529,66.4927151 155.782936,69.2380983 160.731604,72.7632746 C170.52958,79.7410169 163.448699,86.9959054 163.448699,86.9959054 C169.665416,84.1324028 171.207377,75.7321132 162.059806,69.9079534" id="Fill-38-Copy-4" transform="translate(148.043832, 85.658241) rotate(-9.000000) translate(-148.043832, -85.658241) "></path>
                    <path d="M585.255755,196.018357 C575.777343,189.985059 574.472235,181.093372 574.472235,181.035079 L574.472235,180.933322 L571.622481,180.933322 L571.851815,226.870041 C569.646558,224.871214 566.409569,223.607182 562.799308,223.607182 C556.153999,223.607182 550.76761,227.882494 550.76761,233.156963 C550.76761,238.430921 556.153999,242.603965 562.799308,242.603965 C569.386074,242.603965 574.733793,238.714715 574.826709,233.089978 L575.009316,233.089978 L575.009316,233.171792 L575.009316,233.156963 L575.009316,233.138044 L574.755814,190.282659 C576.293478,192.603118 578.978885,195.348502 583.927553,198.873678 C593.725529,205.85142 586.644648,213.106309 586.644648,213.106309 C592.861365,210.242806 594.403326,201.842516 585.255755,196.018357" id="Fill-38-Copy" transform="translate(571.239781, 211.768644) rotate(27.000000) translate(-571.239781, -211.768644) "></path>
                    <path d="M746.619721,385.385619 C745.816784,384.620655 744.872058,383.879212 743.766207,383.175097 C735.64124,378.002896 733.587978,370.733178 733.162072,368.725147 L733.147571,364.912598 C734.693828,367.217206 737.418979,369.942136 742.315551,373.429984 C748.736896,378.002896 747.934496,382.694949 746.619721,385.385619 L746.619721,385.385619 Z M742.315551,360.829038 C748.736896,365.402461 747.934496,370.094515 746.619721,372.785185 C745.816784,372.020732 744.872058,371.278778 743.766207,370.574663 C735.263672,365.16162 733.409667,357.452151 733.112124,355.879781 L733.098697,352.237508 C734.635824,354.558479 737.365808,357.303862 742.315551,360.829038 L742.315551,360.829038 Z M747.388284,373.574693 C751.545295,369.921171 751.6989,362.992517 743.815619,357.973717 C734.337743,351.940419 733.160998,343.048732 733.160998,342.99044 L733.160998,342.888683 L730.055056,342.888683 L730.28439,388.82489 C728.078597,386.826063 724.842144,385.562543 721.231883,385.562543 C714.586575,385.562543 709.200185,389.837854 709.200185,395.112324 C709.200185,400.386282 714.586575,404.559326 721.231883,404.559326 C727.818112,404.559326 733.166369,400.670076 733.259821,395.045338 L733.160998,395.045338 L733.160998,395.127153 L733.160998,395.112324 L733.160998,395.093404 L733.144348,377.587176 C734.699736,379.876444 737.446371,382.580409 742.289771,386.030418 C752.08721,393.008161 745.08152,400.263049 745.08152,400.263049 C750.291747,397.863332 752.262835,391.576409 747.382377,386.175128 C750.757396,383.208846 751.464195,378.08471 747.388284,373.574693 L747.388284,373.574693 Z" id="Fill-39" transform="translate(729.704883, 373.724004) rotate(41.000000) translate(-729.704883, -373.724004) "></path>
                    <path d="M569.926463,158.842885 C569.123527,158.077921 568.178801,157.336478 567.07295,156.632363 C558.947982,151.460162 556.89472,144.190444 556.468815,142.182413 L556.454313,138.369864 C558.000571,140.674472 560.725722,143.399402 565.622293,146.88725 C572.043638,151.460162 571.241239,156.152215 569.926463,158.842885 L569.926463,158.842885 Z M565.622293,134.286304 C572.043638,138.859727 571.241239,143.551781 569.926463,146.242451 C569.123527,145.477998 568.178801,144.736044 567.07295,144.031929 C558.570414,138.618886 556.716409,130.909417 556.418866,129.337047 L556.405439,125.694774 C557.942566,128.015745 560.672551,130.761128 565.622293,134.286304 L565.622293,134.286304 Z M570.695027,147.031959 C574.852037,143.378437 575.005642,136.449783 567.122361,131.430983 C557.644486,125.397685 556.46774,116.505998 556.46774,116.447706 L556.46774,116.345949 L553.361799,116.345949 L553.591132,162.282156 C551.385339,160.283329 548.148887,159.019809 544.538625,159.019809 C537.893317,159.019809 532.506928,163.29512 532.506928,168.56959 C532.506928,173.843548 537.893317,178.016592 544.538625,178.016592 C551.124855,178.016592 556.473111,174.127342 556.566563,168.502604 L556.46774,168.502604 L556.46774,168.584419 L556.46774,168.56959 L556.46774,168.55067 L556.451091,151.044442 C558.006479,153.33371 560.753113,156.037675 565.596513,159.487684 C575.393952,166.465427 568.388262,173.720315 568.388262,173.720315 C573.598489,171.320598 575.569578,165.033675 570.689119,159.632394 C574.064139,156.666112 574.770938,151.541976 570.695027,147.031959 L570.695027,147.031959 Z" id="Fill-39-Copy" transform="translate(553.011625, 147.181270) rotate(11.000000) translate(-553.011625, -147.181270) "></path>
                    <path d="M292.926463,143.842885 C292.123527,143.077921 291.178801,142.336478 290.07295,141.632363 C281.947982,136.460162 279.89472,129.190444 279.468815,127.182413 L279.454313,123.369864 C281.000571,125.674472 283.725722,128.399402 288.622293,131.88725 C295.043638,136.460162 294.241239,141.152215 292.926463,143.842885 L292.926463,143.842885 Z M288.622293,119.286304 C295.043638,123.859727 294.241239,128.551781 292.926463,131.242451 C292.123527,130.477998 291.178801,129.736044 290.07295,129.031929 C281.570414,123.618886 279.716409,115.909417 279.418866,114.337047 L279.405439,110.694774 C280.942566,113.015745 283.672551,115.761128 288.622293,119.286304 L288.622293,119.286304 Z M293.695027,132.031959 C297.852037,128.378437 298.005642,121.449783 290.122361,116.430983 C280.644486,110.397685 279.46774,101.505998 279.46774,101.447706 L279.46774,101.345949 L276.361799,101.345949 L276.591132,147.282156 C274.385339,145.283329 271.148887,144.019809 267.538625,144.019809 C260.893317,144.019809 255.506928,148.29512 255.506928,153.56959 C255.506928,158.843548 260.893317,163.016592 267.538625,163.016592 C274.124855,163.016592 279.473111,159.127342 279.566563,153.502604 L279.46774,153.502604 L279.46774,153.584419 L279.46774,153.56959 L279.46774,153.55067 L279.451091,136.044442 C281.006479,138.33371 283.753113,141.037675 288.596513,144.487684 C298.393952,151.465427 291.388262,158.720315 291.388262,158.720315 C296.598489,156.320598 298.569578,150.033675 293.689119,144.632394 C297.064139,141.666112 297.770938,136.541976 293.695027,132.031959 L293.695027,132.031959 Z" id="Fill-39-Copy-2" transform="translate(276.011625, 132.181270) rotate(11.000000) translate(-276.011625, -132.181270) "></path>
                    <path d="M43.9148382,107.842885 C43.1119015,107.077921 42.1671753,106.336478 41.0613247,105.632363 C32.9363572,100.460162 30.8830949,93.1904442 30.4571894,91.182413 L30.4426882,87.3698638 C31.9889456,89.6744721 34.7140966,92.3994016 39.6106678,95.8872501 C46.0320131,100.460162 45.2296135,105.152215 43.9148382,107.842885 L43.9148382,107.842885 Z M39.6106678,83.2863045 C46.0320131,87.8597272 45.2296135,92.5517809 43.9148382,95.2424507 C43.1119015,94.4779977 42.1671753,93.7360437 41.0613247,93.0319289 C32.5587889,87.6188862 30.7047839,79.9094167 30.4072408,78.3370469 L30.3938138,74.6947738 C31.9309408,77.015745 34.6609256,79.7611282 39.6106678,83.2863045 L39.6106678,83.2863045 Z M44.6834017,96.0319593 C48.8404118,92.3784367 48.9940171,85.449783 41.1107362,80.4309832 C31.6328606,74.3976854 30.4561152,65.5059984 30.4561152,65.4477057 L30.4561152,65.345949 L27.3501735,65.345949 L27.5795072,111.282156 C25.3737139,109.283329 22.1372613,108.019809 18.5270001,108.019809 C11.8816919,108.019809 6.49530243,112.29512 6.49530243,117.56959 C6.49530243,122.843548 11.8816919,127.016592 18.5270001,127.016592 C25.1132294,127.016592 30.461486,123.127342 30.5549382,117.502604 L30.4561152,117.502604 L30.4561152,117.584419 L30.4561152,117.56959 L30.4561152,117.55067 L30.4394657,100.044442 C31.9948535,102.33371 34.7414878,105.037675 39.5848879,108.487684 C49.3823269,115.465427 42.3766371,122.720315 42.3766371,122.720315 C47.5868638,120.320598 49.5579525,114.033675 44.6774938,108.632394 C48.0525134,105.666112 48.7593125,100.541976 44.6834017,96.0319593 L44.6834017,96.0319593 Z" id="Fill-39-Copy-4" transform="translate(27.000000, 96.181270) rotate(11.000000) translate(-27.000000, -96.181270) "></path>
                    <path d="M216.486215,53.842885 C215.683279,53.0779207 214.738553,52.3364781 213.632702,51.6323632 C205.507734,46.4601616 203.454472,39.1904442 203.028567,37.182413 L203.014065,33.3698638 C204.560323,35.6744721 207.285474,38.3994016 212.182045,41.8872501 C218.60339,46.4601616 217.800991,51.1522152 216.486215,53.842885 L216.486215,53.842885 Z M212.182045,29.2863045 C218.60339,33.8597272 217.800991,38.5517809 216.486215,41.2424507 C215.683279,40.4779977 214.738553,39.7360437 213.632702,39.0319289 C205.130166,33.6188862 203.276161,25.9094167 202.978618,24.3370469 L202.965191,20.6947738 C204.502318,23.015745 207.232303,25.7611282 212.182045,29.2863045 L212.182045,29.2863045 Z M217.254779,42.0319593 C221.411789,38.3784367 221.565394,31.449783 213.682113,26.4309832 C204.204238,20.3976854 203.027492,11.5059984 203.027492,11.4477057 L203.027492,11.345949 L199.921551,11.345949 L200.150884,57.2821562 C197.945091,55.2833291 194.708639,54.0198086 191.098377,54.0198086 C184.453069,54.0198086 179.06668,58.2951203 179.06668,63.5695899 C179.06668,68.8435481 184.453069,73.0165919 191.098377,73.0165919 C197.684607,73.0165919 203.032863,69.1273417 203.126315,63.5026044 L203.027492,63.5026044 L203.027492,63.5844187 L203.027492,63.5695899 L203.027492,63.5506703 L203.010843,46.0444423 C204.566231,48.3337104 207.312865,51.0376751 212.156265,54.4876844 C221.953704,61.4654268 214.948014,68.7203153 214.948014,68.7203153 C220.158241,66.3205978 222.12933,60.0336754 217.248871,54.6323936 C220.623891,51.6661116 221.33069,46.5419759 217.254779,42.0319593 L217.254779,42.0319593 Z" id="Fill-39-Copy-3" transform="translate(199.571377, 42.181270) rotate(46.000000) translate(-199.571377, -42.181270) "></path>
                    <path d="M733.091635,305.516427 C724.588025,300.102873 722.734557,292.391869 722.437014,290.821034 L722.42305,287.179783 C723.960714,289.500243 726.690699,292.245626 731.640441,295.770802 C738.061249,300.343714 737.259387,305.035768 735.944612,307.726437 C735.142212,306.961984 734.196949,306.22003 733.091635,305.516427 L733.091635,305.516427 Z M733.153937,292.915481 C723.676598,286.882183 722.512206,277.990496 722.512206,277.932204 L722.512206,277.830447 L719.37941,277.830447 L719.609281,323.767166 C717.403487,321.768338 714.167035,320.504307 710.556774,320.504307 C703.910928,320.504307 698.524539,324.779618 698.524539,330.054088 C698.524539,335.328046 703.910928,339.50109 710.556774,339.50109 C717.143003,339.50109 722.490722,335.61184 722.584175,329.987102 L722.512206,329.987102 L722.512206,330.068917 L722.512206,330.054088 L722.512206,330.035168 L722.433792,299.854362 C723.980586,302.159481 726.725072,304.8839 731.621643,308.371748 C741.419082,315.34949 734.409633,322.604379 734.409633,322.604379 C739.619323,320.20415 741.621025,313.917739 736.739492,308.516457 C740.895965,304.862423 741.037218,297.93377 733.153937,292.915481 L733.153937,292.915481 Z" id="Fill-40" transform="translate(719.040029, 308.665769) rotate(-18.000000) translate(-719.040029, -308.665769) "></path>
                    <path d="M470.077625,221.342378 C461.574015,215.928824 459.720547,208.21782 459.423004,206.646985 L459.409039,203.005734 C460.946704,205.326194 463.676688,208.071577 468.626431,211.596754 C475.047239,216.169665 474.245376,220.861719 472.930601,223.552388 C472.128201,222.787935 471.182938,222.045981 470.077625,221.342378 L470.077625,221.342378 Z M470.139926,208.741432 C460.662587,202.708135 459.498195,193.816447 459.498195,193.758155 L459.498195,193.656398 L456.365399,193.656398 L456.59527,239.593117 C454.389477,237.59429 451.153024,236.330258 447.542763,236.330258 C440.896918,236.330258 435.510528,240.605569 435.510528,245.880039 C435.510528,251.153997 440.896918,255.327041 447.542763,255.327041 C454.128992,255.327041 459.476712,251.437791 459.570164,245.813053 L459.498195,245.813053 L459.498195,245.894868 L459.498195,245.880039 L459.498195,245.861119 L459.419781,215.680313 C460.966576,217.985432 463.711062,220.709851 468.607633,224.197699 C478.405072,231.175442 471.395622,238.43033 471.395622,238.43033 C476.605312,236.030101 478.607014,229.74369 473.725481,224.342408 C477.881954,220.688374 478.023207,213.759721 470.139926,208.741432 L470.139926,208.741432 Z" id="Fill-40-Copy" transform="translate(456.026018, 224.491720) rotate(-55.000000) translate(-456.026018, -224.491720) "></path>
                    <path d="M339.077625,69.342378 C330.574015,63.928824 328.720547,56.2178204 328.423004,54.6469847 L328.409039,51.0057342 C329.946704,53.3261941 332.676688,56.0715772 337.626431,59.5967535 C344.047239,64.169665 343.245376,68.8617186 341.930601,71.5523884 C341.128201,70.7879355 340.182938,70.0459815 339.077625,69.342378 L339.077625,69.342378 Z M339.139926,56.7414323 C329.662587,50.7081345 328.498195,41.8164475 328.498195,41.7581547 L328.498195,41.6563981 L325.365399,41.6563981 L325.59527,87.5931166 C323.389477,85.5942895 320.153024,84.3302576 316.542763,84.3302576 C309.896918,84.3302576 304.510528,88.6055693 304.510528,93.8800389 C304.510528,99.1539972 309.896918,103.327041 316.542763,103.327041 C323.128992,103.327041 328.476712,99.4377908 328.570164,93.8130534 L328.498195,93.8130534 L328.498195,93.8948678 L328.498195,93.8800389 L328.498195,93.8611194 L328.419781,63.6803128 C329.966576,65.9854325 332.711062,68.7098507 337.607633,72.1976992 C347.405072,79.1754415 340.395622,86.43033 340.395622,86.43033 C345.605312,84.0301012 347.607014,77.7436902 342.725481,72.3424083 C346.881954,68.6883744 347.023207,61.7597207 339.139926,56.7414323 L339.139926,56.7414323 Z" id="Fill-40-Copy-2" transform="translate(325.026018, 72.491720) rotate(-55.000000) translate(-325.026018, -72.491720) "></path>
                    <path d="M678.16059,262.994424 L678.171332,265.770488 L641.9656,270.257494 L641.95271,267.715113 L678.16059,262.994424 L678.16059,262.994424 Z M690.023107,209.548681 C683.451916,209.548681 678.116013,213.890979 677.996781,219.004376 L677.886142,219.004376 L677.886142,218.996706 L677.886142,219.015626 C677.886142,219.023807 677.939313,219.031988 677.93985,219.039659 L678.122458,259.899285 L641.924245,264.619973 L641.756676,229.905117 C643.963006,231.903944 647.202144,233.167465 650.812942,233.167465 C657.45825,233.167465 662.846251,228.892153 662.846251,223.617683 C662.846251,218.343725 657.460399,214.150739 650.815091,214.150739 C644.2439,214.150739 638.90907,218.493036 638.789838,223.606434 L638.679199,223.606434 L638.679199,223.598764 L638.679199,223.617683 C638.679199,223.625865 638.73237,223.634046 638.732907,223.641716 L638.984798,275.763089 L638.986947,275.763089 L638.990706,276.68708 L681.242901,271.683621 L681.171469,265.485671 L680.9706,225.303059 C683.176394,227.301886 686.412309,228.565407 690.023107,228.565407 C696.668416,228.565407 702.054805,224.331514 702.054805,219.057555 C702.054805,213.783086 696.668416,209.548681 690.023107,209.548681 L690.023107,209.548681 Z" id="Fill-55" transform="translate(670.367002, 243.117881) rotate(287.000000) translate(-670.367002, -243.117881) "></path>
                    <path d="M98.816739,74.5741246 L98.8274807,77.3501882 L62.6217489,81.8371945 L62.6088589,79.2948133 L98.816739,74.5741246 L98.816739,74.5741246 Z M110.679256,21.1283818 C104.108065,21.1283818 98.7721613,25.470679 98.6529292,30.5840766 L98.5422904,30.5840766 L98.5422904,30.5764065 L98.5422904,30.595326 C98.5422904,30.6035075 98.5954615,30.6116889 98.5959986,30.619359 L98.7786062,71.4789851 L62.5803936,76.1996737 L62.4128242,41.4848175 C64.6191546,43.4836446 67.8582926,44.7471652 71.4690909,44.7471652 C78.1143991,44.7471652 83.5023998,40.4718535 83.5023998,35.1973839 C83.5023998,29.9234256 78.1165474,25.7304396 71.4712392,25.7304396 C64.9000482,25.7304396 59.5652186,30.0727368 59.4459865,35.1861344 L59.3353477,35.1861344 L59.3353477,35.1784643 L59.3353477,35.1973839 C59.3353477,35.2055653 59.3885188,35.2137467 59.3890559,35.2214168 L59.6409471,87.3427897 L59.6430954,87.3427897 L59.6468549,88.2667807 L101.899049,83.2633211 L101.827617,77.0653719 L101.626749,36.8827597 C103.832542,38.8815868 107.068458,40.1451074 110.679256,40.1451074 C117.324564,40.1451074 122.710954,35.9112142 122.710954,30.6372559 C122.710954,25.3627863 117.324564,21.1283818 110.679256,21.1283818 L110.679256,21.1283818 Z" id="Fill-55-Copy" transform="translate(91.023151, 54.697581) rotate(354.000000) translate(-91.023151, -54.697581) "></path>
                </g>
            </g>
        </g>
    </g>
</svg>