<?xml version="1.0" encoding="UTF-8" standalone="no"?>
<svg width="797px" height="275px" viewBox="0 0 797 275" version="1.1" xmlns="http://www.w3.org/2000/svg" xmlns:xlink="http://www.w3.org/1999/xlink">
    <!-- Generator: Sketch 40.1 (33804) - http://www.bohemiancoding.com/sketch -->
    <title>Soundwaves</title>
    <desc>Created with Sketch.</desc>
    <defs></defs>
    <g id="Page-1" stroke="none" stroke-width="1" fill="none" fill-rule="evenodd" stroke-linecap="square">
        <g id="Home-Page" transform="translate(-800.000000, -397.000000)" stroke="#64BCDF" stroke-width="5">
            <g id="Hero-Section" transform="translate(-34.000000, 0.000000)">
                <g id="Soundwaves" transform="translate(834.000000, 400.000000)">
                    <path d="M2.5,29 L2.5,113.4696" id="Line"></path>
                    <path d="M210.5,58 L210.5,188" id="Line-Copy-26"></path>
                    <path d="M418.5,158.5 L418.5,188.496124" id="Line-Copy-52"></path>
                    <path d="M26.5,0 L26.5,155" id="Line-Copy"></path>
                    <path d="M234.5,44 L234.5,214" id="Line-Copy-27"></path>
                    <path d="M442.5,149.236111 L442.5,209.678725" id="Line-Copy-53"></path>
                    <path d="M10.5,9 L10.5,137.308824" id="Line-Copy-2"></path>
                    <path d="M218.5,70 L218.5,180" id="Line-Copy-28"></path>
                    <path d="M426.5,157.5 L426.5,192.496124" id="Line-Copy-54"></path>
                    <path d="M18.5,23.5 L18.5,128" id="Line-Copy-3"></path>
                    <path d="M226.5,55 L226.5,200" id="Line-Copy-29"></path>
                    <path d="M434.5,152.236111 L434.5,201.345392" id="Line-Copy-55"></path>
                    <path d="M34.5,23.5 L34.5,136" id="Line-Copy-4"></path>
                    <path d="M242.5,63 L242.5,199" id="Line-Copy-30"></path>
                    <path d="M450.5,139.236111 L450.5,223.762059" id="Line-Copy-56"></path>
                    <path d="M42.5,47.5 L42.5,116" id="Line-Copy-5"></path>
                    <path d="M250.5,46 L250.5,221" id="Line-Copy-31"></path>
                    <path d="M458.5,145.236111 L458.5,221.262059" id="Line-Copy-57"></path>
                    <path d="M50.5,52.5 L50.5,115" id="Line-Copy-6"></path>
                    <path d="M258.5,73 L258.5,198" id="Line-Copy-32"></path>
                    <path d="M658.5,98.5 L658.5,193.496124" id="Line-Copy-82"></path>
                    <path d="M466.5,162.236111 L466.5,207.095392" id="Line-Copy-58"></path>
                    <path d="M58.5,29.5 L58.5,142" id="Line-Copy-7"></path>
                    <path d="M266.5,45 L266.5,230" id="Line-Copy-33"></path>
                    <path d="M666.5,73.5 L666.5,222.496124" id="Line-Copy-83"></path>
                    <path d="M474.5,113.5 L474.5,262.496124" id="Line-Copy-59"></path>
                    <path d="M66.5,22 L66.5,152" id="Line-Copy-8"></path>
                    <path d="M274.5,83 L274.5,195" id="Line-Copy-34"></path>
                    <path d="M674.5,123.5 L674.5,177.496124" id="Line-Copy-84"></path>
                    <path d="M482.5,132.5 L482.5,239.496124" id="Line-Copy-60"></path>
                    <path d="M74.5,20.5 L74.5,157.496124" id="Line-Copy-9"></path>
                    <path d="M282.5,96.5 L282.5,185.496124" id="Line-Copy-35"></path>
                    <path d="M682.5,137.163076 L682.5,166.189339" id="Line-Copy-85"></path>
                    <path d="M490.5,127.5 L490.5,240.496124" id="Line-Copy-61"></path>
                    <path d="M82.5,34 L82.5,149" id="Line-Copy-10"></path>
                    <path d="M290.5,86.5 L290.5,199.496124" id="Line-Copy-36"></path>
                    <path d="M690.5,135.163076 L690.5,172.016987" id="Line-Copy-86"></path>
                    <path d="M498.5,140.5 L498.5,224.496124" id="Line-Copy-62"></path>
                    <path d="M90.5,43 L90.5,143" id="Line-Copy-11"></path>
                    <path d="M298.5,115 L298.5,176" id="Line-Copy-37"></path>
                    <path d="M698.5,132.163076 L698.5,179.127698" id="Line-Copy-87"></path>
                    <path d="M506.5,108.5 L506.5,252.496124" id="Line-Copy-63"></path>
                    <path d="M98.5,63 L98.5,128" id="Line-Copy-12"></path>
                    <path d="M306.5,130 L306.5,165" id="Line-Copy-38"></path>
                    <path d="M706.5,142.163076 L706.5,173.146251" id="Line-Copy-88"></path>
                    <path d="M514.5,143.5 L514.5,213.496124" id="Line-Copy-64"></path>
                    <path d="M106.5,53 L106.5,141" id="Line-Copy-13"></path>
                    <path d="M314.5,108 L314.5,191" id="Line-Copy-39"></path>
                    <path d="M714.5,150.163076 L714.5,170.709387" id="Line-Copy-89"></path>
                    <path d="M522.5,163.205618 L522.5,189.111836" id="Line-Copy-65"></path>
                    <path d="M114.5,67 L114.5,132" id="Line-Copy-14"></path>
                    <path d="M770.5,134.5 L770.5,213.496124" id="Line-Copy-96"></path>
                    <path d="M322.5,139 L322.5,164" id="Line-Copy-40"></path>
                    <path d="M722.5,149.163076 L722.5,174.927819" id="Line-Copy-90"></path>
                    <path d="M530.5,158.205618 L530.5,190.691598" id="Line-Copy-66"></path>
                    <path d="M122.5,81 L122.5,121" id="Line-Copy-15"></path>
                    <path d="M778.5,154.5 L778.5,198.496124" id="Line-Copy-97"></path>
                    <path d="M330.5,137 L330.5,169" id="Line-Copy-41"></path>
                    <path d="M730.5,115.5 L730.5,212.496124" id="Line-Copy-91"></path>
                    <path d="M538.5,162.090922 L538.5,182.09383" id="Line-Copy-67"></path>
                    <path d="M130.5,95 L130.5,111.449405" id="Line-Copy-16"></path>
                    <path d="M786.5,121.5 L786.5,235.496124" id="Line-Copy-98"></path>
                    <path d="M338.5,146 L338.5,164" id="Line-Copy-42"></path>
                    <path d="M738.5,109.5 L738.5,223.496124" id="Line-Copy-92"></path>
                    <path d="M546.5,146.205618 L546.5,193.084827" id="Line-Copy-68"></path>
                    <path d="M138.5,93 L138.5,116.131975" id="Line-Copy-17"></path>
                    <path d="M794.5,143.5 L794.5,216.496124" id="Line-Copy-99"></path>
                    <path d="M346.5,120.5 L346.5,193.496124" id="Line-Copy-43"></path>
                    <path d="M746.5,131.5 L746.5,204.496124" id="Line-Copy-93"></path>
                    <path d="M554.5,131.5 L554.5,204.496124" id="Line-Copy-69"></path>
                    <path d="M146.5,85 L146.5,128.693731" id="Line-Copy-18"></path>
                    <path d="M354.5,74.5 L354.5,244.496124" id="Line-Copy-44"></path>
                    <path d="M754.5,85.5 L754.5,255.496124" id="Line-Copy-94"></path>
                    <path d="M562.5,81.5 L562.5,251.496124" id="Line-Copy-70"></path>
                    <path d="M154.5,95 L154.5,123.272414" id="Line-Copy-19"></path>
                    <path d="M362.5,81.5 L362.5,241.496124" id="Line-Copy-45"></path>
                    <path d="M762.5,92.5 L762.5,252.496124" id="Line-Copy-95"></path>
                    <path d="M570.5,84.5 L570.5,244.496124" id="Line-Copy-71"></path>
                    <path d="M162.5,87 L162.5,134.292038" id="Line-Copy-20"></path>
                    <path d="M370.5,91.5 L370.5,234.496124" id="Line-Copy-46"></path>
                    <path d="M578.5,67.5 L578.5,257.496124" id="Line-Copy-72"></path>
                    <path d="M170.5,84.5477119 L170.5,141.095424" id="Line-Copy-21"></path>
                    <path d="M378.5,116.5 L378.5,214.496124" id="Line-Copy-47"></path>
                    <path d="M586.5,93.5 L586.5,226.496124" id="Line-Copy-73"></path>
                    <path d="M178.5,88.5 L178.5,142.178884" id="Line-Copy-22"></path>
                    <path d="M386.5,130.5 L386.5,204.496124" id="Line-Copy-48"></path>
                    <path d="M594.5,112.5 L594.5,204.496124" id="Line-Copy-74"></path>
                    <path d="M626.5,61.5 L626.5,238.496124" id="Line-Copy-78"></path>
                    <path d="M186.5,66 L186.5,168" id="Line-Copy-23"></path>
                    <path d="M394.5,87.5 L394.5,251.496124" id="Line-Copy-49"></path>
                    <path d="M602.5,42.5 L602.5,269.496124" id="Line-Copy-75"></path>
                    <path d="M634.5,66.5 L634.5,230.496124" id="Line-Copy-79"></path>
                    <path d="M194.5,76 L194.5,163" id="Line-Copy-24"></path>
                    <path d="M402.5,99.5 L402.5,243.496124" id="Line-Copy-50"></path>
                    <path d="M610.5,63.5 L610.5,244.496124" id="Line-Copy-76"></path>
                    <path d="M642.5,58.5 L642.5,233.496124" id="Line-Copy-80"></path>
                    <path d="M202.5,61 L202.5,181" id="Line-Copy-25"></path>
                    <path d="M410.5,133.5 L410.5,212.496124" id="Line-Copy-51"></path>
                    <path d="M618.5,103.5 L618.5,201.496124" id="Line-Copy-77"></path>
                    <path d="M650.5,104.5 L650.5,183.496124" id="Line-Copy-81"></path>
                </g>
            </g>
        </g>
    </g>
</svg>